<svg width="100" height="100" viewBox="0 0 100 100" fill="none" xmlns="http://www.w3.org/2000/svg">
<path d="M48 79.1666C48 80.2712 48.8954 81.1666 50 81.1666C51.1046 81.1666 52 80.2712 52 79.1666H48ZM50 20.8333L51.4142 19.419C50.6332 18.638 49.3668 18.638 48.5858 19.419L50 20.8333ZM19.4191 48.5857C18.6381 49.3668 18.6381 50.6331 19.4191 51.4141C20.2002 52.1952 21.4665 52.1952 22.2475 51.4141L19.4191 48.5857ZM77.7525 51.4141C78.5335 52.1952 79.7998 52.1952 80.5809 51.4141C81.3619 50.6331 81.3619 49.3668 80.5809 48.5857L77.7525 51.4141ZM52 79.1666V20.8333H48V79.1666H52ZM22.2475 51.4141L51.4142 22.2475L48.5858 19.419L19.4191 48.5857L22.2475 51.4141ZM48.5858 22.2475L77.7525 51.4141L80.5809 48.5857L51.4142 19.419L48.5858 22.2475Z" fill="#F3F3F3"/>
</svg>
