<?xml version="1.0" encoding="UTF-8"?>
<svg version="1.1" viewBox="0 0 1924 1892" width="1280" height="1280" xmlns="http://www.w3.org/2000/svg">
<path transform="translate(846,49)" d="m0 0h7l10 9 4 5 3 9 1 11v16l-2 22-4 19-11 33-8 20 5-2 1-3 10-6 10-7 15-9 12-7 5-1v-2l8-4h2v-2l11-7 5-3 12-8 6-2v-2l14-9h2v-2l11-7 10-7 15-10 16-8 11-3h6l6 6 2 3 2 17v12l-3 12-6 13-9 14-11 13-7 8-11 12-7 8-8 8-7 8-24 24-8 7-7 7 28 1 13 2 17 6 21 10 19 12 14 8 15 6v2l8 2v2h3v2h3v2l4 2 5 4 2 4 2 1 3 9-1 8h-2l-2 4-8 9h-2l-1 3-3 2h-3v2l-16 6-21 3h-12l-18-3-9-4-12-5-9-5-12-9-8-7-5 1-8 2-24 3-13 1h-25l-12-1-5 12-6 24-6 34-1 11 4-5 3-5 8-10 11-13 10-9 10-7 12-5h26l38 4 43 1 16 5 16 9 13 9 11 7 12 5v2l7 2v2l9 3v2l4 2 10 9 5 7 2 11-3 6h-2l-1 4h-2l-2 5-10 7-7 3h-14l-16-3-20-7-21-7-12-5-1-2h-5v2l-16 5-7 1-30 1-7 11-5 6-5 2v3l7 1 6 2 16 9 7 4v2l4 1v2l12 6v2l5 1 1 2 3 1 3 3 8 7 7 8v2h2l3 6 8 6 12 11 4 5 6 4 3 3 6 5 2 1v2l5 2 5 5 5 3 3 4 4 2 28 28 8 10 9 11 3 1 3 4v3l5 2 6 8 8 7 5 3 10 8 11 12 8 9 5 10 6 18 10 23 5 13 10 37 6 23 3 19 1 13 4 13 3 5 2 1 1 7 3 1 3 9 4 9v2h2l3 6v2h2l5 14 7 18 3 12 3 19 2 10v36l-3 26-6 28-8 32-9 24-10 26-12 35-12 36-7 25-12 47-10 36-14 60-6 24-2 11v62l1 6 3 50 4 46 2 9 4 26 4 16 2 11 4 16 4 23 3 16 3 20v9l-10 2 1 5-1 4-8 1-38 1h-80l-93-1-49 1h-278l-46-1-21-1-3-3 1-4 2-1-9-3 6-22 5-16 5-17 6-16 5-14 4-10 6-23 10-40 6-20 5-19 4-13 13-52 6-26 4-15 3-13 3-17 3-26 3-15 5-23 7-23 10-40 5-22 4-15 2-10 2-14 2-8 5-30 7-24 13-52 7-39 2-20 2-45 1-14v-22l-7-10-8-4v-11l5-9 3-1-3-24-8-34-3-13-5-18-2-12-4-16-10-30-14-34-13-28-12-24-8-14-8-16-10-21-3-4-1-5h-2l-3-6-6-10-6-11-7-15-1-5v-19l3-9h2l1-8h2l2-8 5-9 6-16 8-29 8-31 1-8h2l1-12 2-5 5-24 8-40 1-10 2-8 5-24 7-21h2l1-5 13-22 11-15 3-5h2l1-4 7-12h2l1-5 11-19h2l2-5 6-10 8-13h2l2-5 5-8h2l2-5 2-4h2l2-5 4-6 9-11 12-20 12-23 6-9 8-13 4-7 10-12h2l1-3 11-8z" fill="#FCCCB6"/>
<path transform="translate(846,49)" d="m0 0h7l10 9 4 5 3 9 1 11v16l-2 22-4 19-11 33-8 20 5-2 1-3 10-6 10-7 15-9 12-7 5-1v-2l8-4h2v-2l11-7 5-3 12-8 6-2v-2l14-9h2v-2l11-7 10-7 15-10 16-8 11-3h6l6 6 2 3 2 17v12l-3 12-6 13-9 14-11 13-7 8-11 12-7 8-8 8-7 8-24 24-8 7-7 7 28 1 13 2 17 6 21 10 19 12 14 8 15 6v2l8 2v2h3v2h3v2l4 2 5 4 2 4 2 1 3 9-1 8h-2l-2 4-8 9h-2l-1 3-3 2h-3v2l-16 6-21 3h-12l-18-3-9-4-12-5-9-5-12-9-8-7-5 1-8 2-24 3-13 1h-25l-12-1-5 12-6 24-6 34-1 11 4-5 3-5 8-10 11-13 10-9 10-7 12-5h26l38 4 43 1 16 5 16 9 13 9 11 7 12 5v2l7 2v2l9 3v2l4 2 10 9 5 7 2 11-3 6h-2l-1 4h-2l-2 5-10 7-7 3h-14l-16-3-20-7-21-7-12-5-1-2h-5v2l-16 5-7 1-30 1-7 11-5 6-5 2v3l7 1 6 2 16 9 7 4v2l4 1v2l12 6v2l5 1 1 2 3 1 3 3 8 7 7 8v2h2l3 6 8 6 12 11 4 5 6 4 3 3 6 5 2 1v2l5 2 5 5 5 3 3 4 4 2 28 28 8 10 9 11 3 1 3 4v3l5 2 6 8 8 7 5 3 10 8 11 12 8 9 5 10 6 18 10 23 5 13 10 37 6 23 3 19 1 13 4 13 3 5 2 1 1 7 3 1 3 9 4 9v2h2l3 6v2h2l5 14 7 18 3 12 3 19 2 10v36l-3 26-6 28-8 32-9 24-10 26-12 35-12 36-7 25-12 47-10 36-14 60-6 24-2 11v62l1 6 3 50 4 46 2 9 4 26 4 16 2 11 4 16 4 23 3 16 3 20v9l-10 1-2-7-8-48-13-66-6-39-3-27-4-72v-43l1-16 1-7 9-31 9-41 9-36 7-24 14-55 15-46 14-39 17-44 7-25 6-27 3-23v-45l-4-22-6-21-8-20-11-23v-2h-2l1 2 6 55 6 37 3 17v37l-4 16-5 12-2 1 1-21v-41l-2-12-2-6-5-36-6-56-4-29-7-43-8-34-5-23-7-20-10-23-4-12-6-10-13-13-14-11-17-12-16-10-21-11-13-8-26-15-15-10-17-8-16-8-39-16-7-1-7 8-10 7-11 4-4 1h-18l-17-2-13-4-16-8-9-5 4 11 10 13 10 9 16 12 27 18 15 8 13 5 20 5 6 3 9 8 11 9 8 8 28 21 13 9 16 10 15 10 25 12v4l-4 1-10-2 9 23 2 9v7l8 16 6 10 12 25 10 25 16 45 8 24 5 25v7l-2 2-5-8-11-36-15-41-11-28-13-33-7-14-6-10-6-8-10-6-10-4-14-7-43-14-20-7-11-5-21-8-29-8-20-3-9-1h-36l1 8-7 11-8 7-17 8-17 5-7 1h-33v2l13 8 24 10 19 8 20 6 16 3 20 1 16 4 17 6 16 8 21 12 16 9 17 8 12 6 2 9 5 16 4 20 4 25 1 9v22l-3 15-2 5 6 5 26 20 12 9 10 9 4 5 3 6v2l-4-1-8-7-9-8-12-9-30-23-8-6-11-8-22-18-14-11-10-9-10-7-10-5-24-5-37-8-12-4-13-2h-16l-19 3-13 6-7 11-4 5-8 7-10 7 7-2 7 1 13 2 25 3 18 4 13 4 9 5 5 3v2l9 3 7 5 7 2 12 5 5 2 11 3 5 2 3 3v2l3 1 8 12v2h2l4 9 7 14 4 6 6 11 6 9v3h2l4 7v2h2l8 20-4 10v29l-1 8v13l-1 20-4 24-3 27-1 32-1 17-1 31-1 46-1 50-1 64v89l-1 116-1 60-1 11-4 2h-11l-12-1-4-4-1-11 2-18 2-35v-9l-1-11v-4l-4 23-10 61-2 7h-7l1-8 7-44 4-33 2-30 1-25 1-42v-51l-1-28v-52l3-64 2-41 2-69 2-26 4-22 10-34 2-14 1-13v-25l-2-29-2-11-5-5-15-16-8-10-11-20-8-11-14-8-12-5-15-7-12-6-12-3-2-1-14 1h-19l-18-2-15-5-9-6-4-3-1 28-1 42-2 21-5 30-8 36-8 32-6 26-9 50-8 36-13 53-9 31-4 22-8 53-9 41-13 52-8 29-15 53-10 40-15 43-9 27-6 22-3 2h-7l-2-2 3-10 6-22 5-16 6-17 9-24 5-15 10-42 7-24 7-26 4-13 13-52 6-26 4-15 3-13 3-17 3-26 3-15 5-23 7-23 10-40 5-22 4-15 2-10 2-14 2-8 5-30 7-24 13-52 7-39 2-20 2-45 1-14v-22l-7-10-8-4v-11l5-9 3-1-3-24-8-34-3-13-5-18-2-12-4-16-10-30-14-34-13-28-12-24-8-14-8-16-10-21-3-4-1-5h-2l-3-6-6-10-6-11-7-15-1-5v-19l3-9h2l1-8h2l2-8 5-9 6-16 8-29 8-31 1-8h2l1-12 2-5 5-24 8-40 1-10 2-8 5-24 7-21h2l1-5 13-22 11-15 3-5h2l1-4 7-12h2l1-5 11-19h2l2-5 6-10 8-13h2l2-5 5-8h2l2-5 2-4h2l2-5 4-6 9-11 12-20 12-23 6-9 8-13 4-7 10-12h2l1-3 11-8zm-84 895 1 2z" fill="#FCCBB5"/>
<path transform="translate(846,49)" d="m0 0h7l10 9 4 5 3 9 1 11v16l-2 22-4 19-11 33-8 20 5-2 1-3 10-6 10-7 15-9 12-7 5-1v-2l8-4h2v-2l11-7 5-3 12-8 6-2v-2l14-9h2v-2l11-7 10-7 15-10 16-8 11-3h6l6 6 2 3 2 17v12l-3 12-6 13-9 14-11 13-7 8-11 12-7 8-8 8-7 8-24 24-8 7-7 7 28 1 13 2 17 6 21 10 19 12 14 8 15 6v2l8 2v2h3v2h3v2l4 2 5 4 2 4 2 1 3 9-1 8h-2l-2 4-8 9h-2l-1 3-3 2h-3v2l-16 6-21 3h-12l-18-3-9-4-12-5-9-5-12-9-8-7-5 1-8 2-24 3-13 1h-25l-12-1-5 12-6 24-6 34-1 11 4-5 3-5 8-10 11-13 10-9 10-7 12-5h26l38 4 43 1 16 5 16 9 13 9 11 7 12 5v2l7 2v2l9 3v2l4 2 10 9 5 7 2 11-3 6h-2l-1 4h-2l-2 5-10 7-7 3h-14l-16-3-20-7-21-7-12-5-1-2h-5v2l-16 5-7 1-30 1-7 11-5 6-5 2v3l7 1 6 2 16 9 7 4v2l4 1v2l12 6v2l5 1 1 2 3 1 3 3 8 7 7 8v2h2l3 6 8 6 12 11 4 5 6 4 3 3 6 5 2 1v2l5 2 5 5 5 3 3 4 4 2 28 28 8 10 9 11 3 1 3 4v3l5 2 6 8 8 7 5 3 10 8 11 12 8 9 5 10 6 18 10 23 5 13 10 37 6 23 3 19 1 13 4 13 3 5 2 1 1 7 3 1 3 9 4 9v2h2l3 6v2h2l5 14 7 18 3 12 3 19 2 10v36l-3 26-6 28-8 32-9 24-10 26-12 35-12 36-7 25-12 47-10 36-14 60-6 24-2 11v62l1 6 3 50 4 46 2 9 4 26 4 16 2 11 4 16 4 23 3 16 3 20v9l-10 1-2-7-8-48-13-66-6-39-3-27-4-72v-43l1-16 1-7 9-31 9-41 9-36 7-24 14-55 15-46 14-39 17-44 7-25 6-27 3-23v-45l-4-22-6-21-8-20-11-23v-2h-2l1 2 6 55 6 37 3 17v37l-4 16-5 12-2 1 1-21v-41l-2-12-2-6-5-36-6-56-4-29-7-43-8-34-5-23-7-20-10-23-4-12-6-10-13-13-14-11-17-12-16-10-21-11-13-8-26-15-15-10-17-8-16-8-39-16-7-1-7 8-10 7-11 4-4 1h-18l-17-2-13-4-16-8-9-5 4 11 10 13 10 9 16 12 27 18 15 8 13 5 20 5 6 3 9 8 11 9 8 8 28 21 13 9 16 10 15 10 25 12v4l-4 1-10-2 9 23 2 9v7l8 16 6 10 12 25 10 25 16 45 8 24 5 25v7l-2 2-5-8-11-36-15-41-11-28-13-33-7-14-6-10-6-8-10-6-10-4-14-7-43-14-20-7-11-5-21-8-29-8-20-3-9-1h-36l1 8-7 11-8 7-17 8-17 5-7 1h-33v2l13 8 24 10 19 8 20 6 16 3 20 1 16 4 17 6 16 8 21 12 16 9 17 8 12 6 2 9 5 16 4 20 4 25 1 9v22l-3 15-2 5 6 5 26 20 12 9 10 9 4 5 3 6v2l-4-1-8-7-9-8-12-9-30-23-8-6-11-8-22-18-14-11-10-9-10-7-10-5-24-5-37-8-12-4-13-2h-16l-19 3-13 6-7 11-4 5-5 3 3-9-1-6-7-2h-8l-18 3 3-3 15-3 16-2 12-4 13-6 19-3h20l14 2 17 5 34 7 16 3 14 6 19 14 10 10 11 8 13 11 10 7 5 2 2-5 1-6v-25l-6-37-5-24-4-12-5-3-12-5-19-10-13-8-16-9-17-9-14-7h-25l-21-3-25-7-18-8-21-9-11-6-7-6-5-7-11-8-4-6 1-9 4-8 5-6 8-5 8-2h16v1l-14 3-12 4-9 6-2 4-1 9 1 6 10 3 4 1 22 1 23-2 17-5 9-4 8-6 5-6 1-2v-7l-4-3-28-5v-1l15-1 17 2 4 1h17l10-1h22l22 2 22 5 18 6 17 8 12 5 2 1 3-31v-14l-1-7-16-16-10-8-7-6-20-4-19-7-15-8-31-21-13-11-10-9-7-9-6-12-3-14-2-12 1-10 3-5 5-3 8-2h13l27 5-2-11h-6l-1-3 2-10 2-23 14-9 10-9 12-12 7-6 4-6 1-6 8-2 31-1 16-5 7-4 3-4h2l2 8 19 8 37 12 16 1 9-2 8-5 1-3-10-8-9-9-8-12-10-14-15-11-17-10-15-6-8-2-31-1-38-4-23-2-13 2-13 7-10 8-11 11-11 14-7 7-7 8-19 19-4 1 2-5 8-10 3-8 5-24 7-37 6-21 3-7-1-7 2-1 15 1h38l35-4 8-1 12 7 11 8 17 8 16 6 9 2h16l17-3 14-6 6-4v-2l-14-8-11-8-10-9-7-7-9-12-4-7-2-7-8-5-14-7-18-6-10-2-45-1h-17l-43 2-49 3-21 3-10 3-8 7-6 12-12 36-9 34-12 36-9 33-11 35-10 25-5 9-4 5-3 1 1-8 13-36 15-47 9-33 21-66 10-29 4-9 6-9 13-7 25-4 73-4 41-1 28-28h2l1-3 7-6 7-8 11-11 2-3h2l2-4 9-9 7-8 9-10 11-14 8-14 5-14 1-6v-10l-9 9-10 7-20 12-14 7-6 2h-7l-10-4-6-3-5 1-14 10-17 10-11 7-20 12-36 24-31 20-19 14-14 11-12 11-11 10-2 6-1 2-5 3-17 28-9 17-13 31-15 43-11 29-9 20-8 16-11 23-10 18-8 14-8 11-4 2 2-10 8-19 11-21 9-16 14-29 13-29 9-23 8-24 6-16 13-30 13-24 14-21 11-12 15-13 13-11 15-11 20-14 8-5h2l2-9 9-26 6-18 6-26 3-18v-30l-3-9-6 16-8 13-8 11-8 9-13 8-8 4-5 2-9-1-10 19-12 18-13 19-14 21-12 19-10 19-13 22-16 24-10 17-1 5 6 7v4l-4-1-3-4v-2h-3l-4 12-6 31-6 36-8 40-8 31-10 32-6 24-7 20-9 19-4 16v9l4 12 9 16 10 18 10 17 7 12 11 23 15 28 13 28 18 43 9 27 16 64 11 45v3l-10 5h-2l-2-13-3-13-7-31-3-13-5-18-2-12-4-16-10-30-14-34-13-28-12-24-8-14-8-16-10-21-3-4-1-5h-2l-3-6-6-10-6-11-7-15-1-5v-19l3-9h2l1-8h2l2-8 5-9 6-16 8-29 8-31 1-8h2l1-12 2-5 5-24 8-40 1-10 2-8 5-24 7-21h2l1-5 13-22 11-15 3-5h2l1-4 7-12h2l1-5 11-19h2l2-5 6-10 8-13h2l2-5 5-8h2l2-5 2-4h2l2-5 4-6 9-11 12-20 12-23 6-9 8-13 4-7 10-12h2l1-3 11-8z" fill="#1F080B"/>
<path transform="translate(730,912)" d="m0 0h1l1 13 12-6v-2l4 1 16-3h8l7 2 2 3-1 7-2 6-4 4-10 7 7-2 7 1 13 2 25 3 18 4 13 4 9 5 5 3v2l9 3 7 5 7 2 12 5 5 2 11 3 5 2 3 3v2l3 1 8 12v2h2l4 9 7 14 4 6 6 11 6 9v3h2l4 7v2h2l8 20-4 10v29l-1 8v13l-1 20-4 24-3 27-1 32-1 17-1 31-1 46-1 50-1 64v89l-1 116-1 60-1 11-4 2h-11l-12-1-4-4-1-11 2-18 2-35v-9l-1-11v-4l-4 23-10 61-2 7h-7l1-8 7-44 4-33 2-30 1-25 1-42v-51l-1-28v-52l3-64 2-41 2-69 2-26 4-22 10-34 2-14 1-13v-25l-2-29-2-11-5-5-15-16-8-10-11-20-8-11-14-8-12-5-15-7-12-6-12-3-2-1-14 1h-19l-18-2-15-5-9-6-4-3-1 28-1 42-2 21-5 30-8 36-8 32-6 26-9 50-8 36-13 53-9 31-4 22-8 53-9 41-13 52-8 29-15 53-10 40-15 43-9 27-6 22-3 2h-7l-2-2 3-10 6-22 5-16 6-17 9-24 5-15 10-42 7-24 7-26 4-13 13-52 6-26 4-15 3-13 3-17 3-26 3-15 5-23 7-23 10-40 5-22 4-15 2-10 2-14 2-8 5-30 7-24 13-52 7-39 2-20 2-45 1-14v-22l-7-10-8-4v-11l5-9 3-1zm32 32 1 2z" fill="#F9B9A1"/>
<path transform="translate(846,49)" d="m0 0h7l10 9 4 5 3 9 1 11v16l-2 22-4 19-11 33-8 20 5-2 1-3 10-6 10-7 15-9 12-7 5-1v-2l8-4h2v-2l11-7 5-3 12-8 6-2v-2l14-9h2v-2l11-7 10-7 15-10 16-8 11-3h6l6 6 2 3 2 17v12l-3 12-6 13-9 14-11 13-7 8-11 12-7 8-8 8-7 8-24 24-8 7-7 7 28 1 13 2 17 6 21 10 19 12 14 8 15 6v2l8 2v2h3v2h3v2l4 2 5 4 2 4 2 1 3 9-1 8h-2l-2 4-8 9h-2l-1 3-3 2h-3v2l-16 6-21 3h-12l-18-3-9-4-12-5-9-5-12-9-8-7-5 1-8 2-24 3-13 1h-25l-12-1-5 12-6 24-6 34-1 11 4-5 3-5 8-10 11-13 10-9 10-7 12-5h26l38 4 43 1 16 5 16 9 11 8 1 4 5 2 7 5v2l-6-1-7-3-10-7-12-7-15-6-8-2-31-1-38-4-23-2-13 2-13 7-10 8-11 11-11 14-7 7-7 8-19 19-4 1 2-5 8-10 3-8 5-24 7-37 6-21 3-7-1-7 2-1 15 1h38l35-4 8-1 12 7 11 8 17 8 16 6 9 2h16l17-3 14-6 6-4v-2l-14-8-11-8-10-9-7-7-9-12-4-7-2-7-8-5-14-7-18-6-10-2-45-1h-17l-43 2-49 3-21 3-10 3-8 7-6 12-12 36-9 34-12 36-9 33-11 35-10 25-5 9-4 5-3 1 1-8 13-36 15-47 9-33 21-66 10-29 4-9 6-9 13-7 25-4 73-4 41-1 28-28h2l1-3 7-6 7-8 11-11 2-3h2l2-4 9-9 7-8 9-10 11-14 8-14 5-14 1-6v-10l-9 9-10 7-20 12-14 7-6 2h-7l-10-4-6-3-5 1-14 10-17 10-11 7-20 12-36 24-31 20-19 14-14 11-12 11-11 10-2 6-1 2-5 3-17 28-9 17-13 31-15 43-11 29-9 20-8 16-11 23-10 18-8 14-8 11-4 2 2-10 8-19 11-21 9-16 14-29 13-29 9-23 8-24 6-16 13-30 13-24 14-21 11-12 15-13 13-11 15-11 20-14 8-5h2l2-9 9-26 6-18 6-26 3-18v-30l-3-9-6 16-8 13-8 11-8 9-13 8-8 4-5 2-9-1-10 19-12 18-13 19-14 21-12 19-10 19-13 22-16 24-10 17-1 5 6 7v4l-4-1-3-4v-2h-3l-4 12-6 31-6 36-8 40-8 31-10 32-6 24-7 20-9 19-4 16v9l4 12 9 16 10 18 10 17 7 12 11 23 15 28 13 28 18 43 9 27 16 64 11 45v3l-10 5h-2l-2-13-3-13-7-31-3-13-5-18-2-12-4-16-10-30-14-34-13-28-12-24-8-14-8-16-10-21-3-4-1-5h-2l-3-6-6-10-6-11-7-15-1-5v-19l3-9h2l1-8h2l2-8 5-9 6-16 8-29 8-31 1-8h2l1-12 2-5 5-24 8-40 1-10 2-8 5-24 7-21h2l1-5 13-22 11-15 3-5h2l1-4 7-12h2l1-5 11-19h2l2-5 6-10 8-13h2l2-5 5-8h2l2-5 2-4h2l2-5 4-6 9-11 12-20 12-23 6-9 8-13 4-7 10-12h2l1-3 11-8z" fill="#20080B"/>
<path transform="translate(767,980)" d="m0 0 13 2 12 1h19l14-1 18 6 19 9 24 11 9 7 10 16 8 14 7 9 9 9 5 6 5 5 2 4 2 19 1 18v25l-2 22-4 15-7 24-4 22-2 26-2 69-5 105v52l1 28v51l-1 42-2 42-3 32-8 53-3 13-3 1h-16l-6-3-1-12 1-17 2-23v-29l1-43 1-16 1-17 1-9 1-16 1-17 1-41 1-31 2-50 1-16v-18l1-5v-22l1-21 1-33 1-16 3-27 2-17 2-15 3-33 3-19 4-25 2-15v-21l-2-13-2-7-6-12-4-5v-2h-2l-1-4h-2l-6-8-3-3v-3h-2v-2h-2l-7-8-8-8v-2l-4-2-6-4v-2l-6-2-10-6-13-5-26-2-10-1-12-5-2-1v-3h-2l-3-6-2-10-3-2z" fill="#F9B9A1"/>
<path transform="translate(896,497)" d="m0 0h1l1 16h2l1-8h1v18l4 4 4 11 1 9 20 6-5-10-3-12-2-6v-9l2-3 3 12h2l6 16 6 13 5 5 7 3 4 4 31 12 6 3 9 3 11 5 11 6 16 8 10 6 7 4 6 4 7 4 5 4 11 6 12 7 11 5 6 2 2 4-1 1h-5l-16-9-8-3-26-15-10-6-12-8-17-8-16-8-39-16-7-1-7 8-10 7-11 4-4 1h-18l-17-2-13-4-16-8-9-5 4 11 10 13 10 9 16 12 27 18 15 8 13 5 20 5 6 3 9 8 11 9 8 8 28 21 13 9 16 10 15 10 25 12v4l-4 1-10-2 9 23 2 9v7l8 16 6 10 12 25 10 25 16 45 8 24 5 25v7l-2 2-5-8-11-36-15-41-11-28-13-33-7-14-6-10-6-8-10-6-10-4-14-7-43-14-20-7-11-5-21-8-29-8-20-3-9-1h-36l1 8-7 11-8 7-17 8-17 5-7 1h-33v2l13 8 24 10 19 8 20 6 16 3 20 1 16 4 17 6 16 8 21 12 16 9 17 8 12 6 2 9 5 16 4 20 4 25 1 9v22l-3 15-2 5 6 5 26 20 12 9 10 9 4 5 3 6v2l-4-1-8-7-9-8-12-9-30-23-8-6-11-8-22-18-14-11-10-9-10-7-10-5-24-5-37-8-12-4-13-2h-16l-19 3-13 6-7 11-4 5-5 3 3-9-1-6-7-2h-8l-18 3 3-3 15-3 16-2 12-4 13-6 19-3h20l14 2 17 5 34 7 16 3 14 6 19 14 10 10 11 8 13 11 10 7 5 2 2-5 1-6v-25l-6-37-5-24-4-12-5-3-12-5-19-10-13-8-16-9-17-9-14-7h-25l-21-3-25-7-18-8-21-9-11-6-7-6-5-7-11-8-4-6 1-9 4-8 5-6 8-5 8-2h16v1l-14 3-12 4-9 6-2 4-1 9 1 6 10 3 4 1 22 1 23-2 17-5 9-4 8-6 5-6 1-2v-7l-4-3-28-5v-1l15-1 17 2 4 1h17l10-1h22l22 2 22 5 18 6 17 8 12 5 2 1 3-31v-14l-1-7-16-16-10-8-7-6-20-4-19-7-15-8-31-21-13-11-10-9-7-9-6-12-3-14-2-12 1-10 3-5 5-3 8-2h13l27 5-2-11h-6l-1-3 2-10z" fill="#0F0408"/>
<path transform="translate(858,63)" d="m0 0 3 4 2 7v30l-5 28-7 26-13 36-2 7-16 10-18 13-13 10-13 11-14 12-10 11-11 17-14 25-13 29-6 15-7 23-11 28-11 25-8 16-12 25-12 21-9 19-6 18 2 1-3 3-4-1 2-9 6-23 6-20 8-27 7-29 9-47 6-37 5-21 3-6 3 1 4 6 3 1-3-7-4-4 2-6 12-21 11-16 12-20 8-14 6-12 11-17 14-21 11-16 8-12 11-18 5-10 2-1 8 1 11-5 12-7 8-7 8-11 7-11 6-12z" fill="#FCC9B3"/>
<path transform="translate(724,943)" d="m0 0 35 1-2 2-18 5v3l4 2 7 7 12 7 13 4 15 2 21 1-1-3-5-3v-2l9 3 12 6 17 4 35 14 14 7 8 7 12 19 8 14 12 13 11 11 8 7 4 5v2l-5-2-3-1 3 7 10 15 1 5-6-4-6-8v14l1 9v24l-2 35-5 2-4 16-5 24-3 35-1 62-3 83-1 22-1 187-2 43-3 26-10 60-1 1h-7l1-8 7-44 4-33 2-30 1-25 1-42v-51l-1-28v-52l3-64 2-41 2-69 2-26 4-22 10-34 2-14 1-13v-25l-2-29-2-11-5-5-15-16-8-10-11-20-8-11-14-8-12-5-15-7-12-6-12-3-2-1-14 1h-19l-18-2-15-5-9-6-4-3-1 28-1 42-2 21-5 30-8 36-8 32-6 26-9 50-8 36-13 53-9 31-4 22-8 53-9 41-13 52-8 29-15 53-10 40-15 43-9 27-6 22-3 2h-7l-2-2 3-10 6-22 5-16 6-17 9-24 5-15 10-42 7-24 7-26 4-13 13-52 6-26 4-15 3-13 3-17 3-26 3-15 5-23 7-23 10-40 5-22 4-15 2-10 2-14 2-8 5-30 7-24 13-52 7-39 2-20 2-45 1-14v-22l-7-10-6-4z" fill="#140509"/>
<path transform="translate(1187,710)" d="m0 0h2l8 21 7 16 5 13 10 37 6 23 3 19 1 13 4 13 3 5 2 1 1 7 3 1 3 9 4 9v2h2l3 6v2h2l5 14 7 18 3 12 3 19 2 10v36l-3 26-6 28-8 32-9 24-10 26-12 35-12 36-7 25-12 47-10 36-14 60-6 24-2 11v62l1 6 3 50 4 46 2 9 4 26 4 16 2 11 4 16 4 23 3 16 3 20v9l-10 1-2-7-8-48-13-66-6-39-3-27-4-72v-43l1-16 1-7 9-31 9-41 9-36 7-24 14-55 15-46 14-39 17-44 7-25 6-27 3-23v-45l-4-22-6-21-8-20-11-23v-2h-2l1 2 6 55 6 37 3 17v37l-4 16-5 12-2 1 1-21v-41l-2-12-2-6-5-36-6-56-4-29-7-43-8-34-5-23-7-20-10-23 1-4 9 21 10 25-1-10-4-12-3-5-6-16-3-9z" fill="#1F080B"/>
<path transform="translate(1035,105)" d="m0 0h1v11l-3 12-5 12-6 10-9 11-9 10-7 8-9 10-5 6-17 17-2 3h-2l-2 4h-2l-2 4-8 7-25 25-41 1-73 4-12 1 3-2 8-1 1-3h3l1-3h2v-2l23-12 11-8 12-7 14-10 16-12 7-5 3-3-2-2v-4l3-3 1-5h4l1 6 5-2 7-8 8-6h2v-2l9-7 7-8 5-4 1-2h2l2-5-2-2 1-3 10 5 4 1h7l13-5 21-12 12-8 12-11z" fill="#FCCAB4"/>
<path transform="translate(979,198)" d="m0 0h4l-2 7-4 5-3 3-2 3h-3v2h-3l-1 3-3 3-3 4h-2v2l-5 5-11 10-2 3h-2l-1 3-2 2v2h29l13 2 17 6 21 10 19 12 14 8 15 6v2l8 2v2h3v2h3v2l4 2 5 4 2 4 2 1 3 9-1 8h-2l-2 4-8 9h-2l-1 3-3 2h-3v2l-16 6-21 3h-12l-18-3-9-4-12-5-9-5-12-9-8-7-5 1-8 2-24 3-13 1h-25l-12-1-5 12-6 24-6 34-1 11 4-5 3-5 8-10 11-13 10-9 10-7 12-5h26l38 4 43 1 16 5 16 9 11 8 1 4 5 2 7 5v2l-6-1-7-3-10-7-12-7-15-6-8-2-31-1-38-4-23-2-13 2-13 7-10 8-11 11-11 14-7 7-7 8-19 19-4 1 2-5 8-10 3-8 5-24 7-37 6-21 3-7-1-7 2-1 15 1h38l35-4 8-1 12 7 11 8 17 8 16 6 9 2h16l17-3 14-6 6-4v-2l-14-8-11-8-10-9-7-7-9-12-4-7-2-7-8-5-14-7-18-6-10-2-45-1h-17l-43 2-49 3-21 3-10 3-8 7-6 12-12 36-9 34-12 36-9 33-11 35-10 25-5 9-4 5-3 1 1-8 13-36 15-47 9-33 21-66 10-29 4-9 6-9 13-7 25-4 73-4 41-1 28-28h2l1-3 7-6 7-8z" fill="#23090C"/>
<path transform="translate(965,642)" d="m0 0h8l9 3 6 4 4 4 7 5 3 1v2h3v2l5 2 10 6 7 4 10 6 20 7 15 7 12 6 7 7 6 4 7 6-1 6-2 5-1 7-1 2v4l5 5v2l5 2 4 7v2h2v2h2l5 13 7 15 4 9v3h2l7 14 7 12 5 9 4 11 6 13 3 6 5 25 3 30v13l-3 10-4 1-1 2h-2l-1 21-4 1v-3h2l-1-14-6-25-13-37-12-33-11-26-11-22-8-13-3-7v-8l-4-13-7-18 3-1 11 2 1-3-25-12-29-19-11-7-13-10-8-6-13-10-9-9-14-11-4-4-12-4-19-5-7-3 3-2 8 2-1-4 5-1 4 1z" fill="#F9B79F"/>
<path transform="translate(752,755)" d="m0 0 7 6 8 6 5 7 11 8 15 7 16 7 20 8 19 5 21 3h25l16 8 23 12 13 8 21 12 10 5 12 5 3 5 5 17 7 40 2 13v25l-2 9-3 3-10-6-13-11 3-1h2l-1-6-3-10v-4h-2l-2-10-7-19-8-15-5-7v-2l-4-2v-2h-2l-4-5-2-1v-2l-4-2-7-5-3-1v-2l-6-2-15-7-13-6-9-3-17-4-12-3-15-1-17-4-12-4-14-7-5-3v-2h-4v-2l-5-1v-2l-4-1-3-2v-2l-4-2-5-5-1-3-4-2-3-5-4-5v-2h-2l-3-5v-2l-3-1v-3h-2l-4-11 4-2z" fill="#F9B8A0"/>
<path transform="translate(820,765)" d="m0 0 4 1-6 1v3l4 3 6-1 3 1 12 2 17 2 9 1 20 4 2 1 24 2 7 3 11 7 9 5 12 9 9 4 12 6 13 5 12 4 7 3 8 3 3 3 2 16 3 10 2 5 2 11 2 5 2 10 5 23 4 13 4 11 3 10 4 10 3 10 3 9 1 14-4 6-11-4-2-3-2 1h-2v2l3 1v2l4 2 5 4v2l-4-2-13-10-12-9-7-6 3-9 2-11v-22l-4-28-4-23-5-17-2-4v-7l-6-2-10-5-21-10-15-9-18-10-14-7-25-8-6-1-20-1-20-4-24-8-20-9-19-8-10-7 1-3h33z" fill="#F9B8A0"/>
<path transform="translate(861,293)" d="m0 0h22l16 3 25 6 14 3 4 1 5 1v2l12 1 3-1 2-7 4-2 1 1-1 9-1 2 5 5 2 1v2h8l3 2v2l4 2 4 4 9 1v3l9 2 8 3v2l-8 1 1 2 8 4 2-1 2 1 2-4 17 2 2 4-2 3-6 2 7 1v1l-8 1h-16l-15-4-23-10-14-9-11-7-7-1-9 2-29 3h-38l-16-1 1 7-5 13-6 25-8 43-2 8-1-2-1 2-6 1-5 2-5-2-2-4-2-1v-7l6-20 5-14 2-8 5-22 2-5v-3l4-16 2-7 2-3 1-5 5-2 4 3-4-11 1-5h4v-2z" fill="#F8B7A0"/>
<path transform="translate(724,943)" d="m0 0 35 1-2 2-18 5v3l4 2 7 7 12 7 13 4 15 2 21 1-1-3-5-3v-2l9 3 12 6 17 4 35 14 14 7 8 7 12 19 8 14 12 13 11 11 8 7 4 5v2l-5-2-3-1 3 7 10 15 1 5-6-4-6-8v14l1 9v24l-2 35-5 2-4 16-5 24-3 35-1 62-3 83-1 22-1 187-2 43-3 26-10 60-1 1h-7l1-8 7-44 4-33 2-30 1-25 1-42v-51l-1-28v-52l3-64 2-41 2-69 2-26 4-22 10-34 2-14 1-13v-25l-2-29-2-11-5-5-15-16-8-10-11-20-8-11-14-8-12-5-15-7-12-6-12-3-2-1-14 1h-19l-18-2-15-5-9-6-5-5-1 2-3-1-1-6h-2l-7-10-6-4z" fill="#100408"/>
<path transform="translate(989,681)" d="m0 0 4 2 13 13v32l-3 19-1 2-9-1-6-3-9-4-12-5-9-3-15-4-14-3-8-2h-42l-10 1-1 1 6 1v1h-9l1 8-7 11-8 7-17 8-17 5-7 1h-33v2l13 8 24 10 19 8 20 6 16 3 20 1 16 4 17 6 16 8 21 12 16 9 17 8 12 6 2 9 5 16 4 20 4 25 1 9v22l-3 15-2 5 6 5 26 20 12 9 10 9 4 5 3 6v2l-4-1-8-7-9-8-12-9-30-23-8-6-11-8-22-18-14-11-10-9-10-7-10-5-24-5-37-8-12-4-13-2h-16l-19 3-13 6-7 11-4 5-5 3 3-9-1-6-7-2h-8l-18 3 3-3 15-3 16-2 12-4 13-6 19-3h20l14 2 17 5 34 7 16 3 14 6 19 14 10 10 11 8 13 11 10 7 5 2 2-5 1-6v-25l-6-37-5-24-4-12-5-3-12-5-19-10-13-8-16-9-17-9-14-7h-25l-21-3-25-7-18-8-21-9-11-6-7-6-5-7-11-8-4-6 1-9 4-8 5-6 8-5 8-2h16v1l-14 3-12 4-9 6-2 4-1 9 1 6 10 3 4 1 22 1 23-2 17-5 9-4 8-6 5-6 1-2v-7l-4-3-28-5v-1l15-1 17 2 4 1h17l10-1h22l22 2 22 5 18 6 17 8 12 5 2 1 3-31v-14l-1-7-14-14z" fill="#130508"/>
<path transform="translate(931,646)" d="m0 0 9 3 10 4 20 5 6 3 9 8 11 9 8 8 28 21 13 9 16 10 15 10 25 12v4l-4 1-10-2 9 23 2 9v7l8 16 6 10 12 25 10 25 16 45 8 24 5 25v7l-2 2-5-8-11-36-15-41-11-28-13-33-7-14-6-10-6-8-10-6-10-4-14-7-43-14-4-2 8 1 25 8 16 5 6 1-14-7-27-9-9-2-3-2v-11h2v-41l1-6-4-2-7-8-5-5-14-11-10-8-24-6-16-8z" fill="#1A0609"/>
<path transform="translate(1006,413)" d="m0 0 11 1 11 5 6 2 10 4 12 4 16 3 6 4 8 4 7 8-1 4h-2l-2 4h-16l-10-2-2-1-1 4 13 3 19 1v1l-6 1-16-1-40-13-16-7-2-6v-3l-8 7-12 5-8 2-31 1-8 1v6l-7 9-13 12-11 11-7 5-9-2-5 4-2 2-4-1-1-9 4-8h2v-3l5-5h2l2-4 5-6 7-11 10-20h3l1-3 12-3 20-3 25-3 17-3z" fill="#F9BAA2"/>
<path transform="translate(777,157)" d="m0 0 2 1-1 10-4 14-4 9-6 13h-2l-1 5-9 16-7 14-4 10-3 5-2 5-3 9-6 14-1 6h-2l-2 9-6 19-1 3-2 8-4 9-3 3-5 9-9 13-3 3-3 5-4 4-4 7-2 4-6 5-3-1v-11l1-1 3-25 1-2 1-18 4-15 3-3 4 4 2 3 3 1-3-7-4-4 2-6 12-21 11-16 12-20 8-14 6-12 11-17 14-21 11-16 6-9z" fill="#FEE8DC"/>
<path transform="translate(950,332)" d="m0 0 5 1 8 8 13 9 12 6 12 4 3 2 18 3h12l19-2-1 2-17 3-11 1-1 4 4 1-2 1-11-3-43-1-38-4h-26l-12 5-12 9-11 10-9 11-8 10-3 5-4 4 2-18 7-37 4-15 5-12 2-1 11 1h25l20-2 23-3z" fill="#FDFBFB"/>
<path transform="translate(924,509)" d="m0 0 7 6 9 8 13 10 10 7 16 8 11 4 12 1 9-2 5-4 4 2 14 15 14 12 11 9 13 11 10 9 8 7 16 17 7 8 2 5-5-1-19-10-16-10-13-8-17-10-36-18-15-6-36-13-16-8-4-5-8-19-5-16z" fill="#FBC6B0"/>
<path transform="translate(950,135)" d="m0 0 4 1 3 6-3 4h-2l-2 4-4 2-2 4-8 8-4 3h-2v2l-8 6h-2l-2 4-6 6-4 1-1-1v-6h-4l-1 7-3 1 2 5 1 2h-3l-2 4-14 10-15 11-13 9-9 5-3 3-11 6-15 8h-2v2l-3 3-3 1-3 3-9 2-13 3-13 7h-4v3h-3l-1-7 16-17 14-12 19-14 16-11 18-11 14-10 26-17 22-13 19-12 16-10zm-187 139 2 1-1 4-3-1z" fill="#FEE7DB"/>
<path transform="translate(1027,82)" d="m0 0h6l6 6 2 3 2 17v12l-3 12-6 13-9 14-11 13-7 8-11 12-7 8-8 8-7 8-24 24-8 7-7 7-2-2 6-5 7-8 6-5 3-4h2v-2l4-4 5-6h3v-2l3-1 3-5h2l6-12h-3l1-3h2l2-4 9-9 7-8 9-10 11-14 8-14 5-14 1-6v-10l-9 9-10 7-20 12-14 7-6 2h-7l-10-4-6-3-5 1-14 10-17 10-11 7-20 12-45 30-1-2 7-6h2v-2l3-2 3-1-1-2-3-2 11-7 10-7 15-9 12-7 5-1v-2l8-4h2v-2l11-7 5-3 12-8 6-2v-2l14-9h2v-2l11-7 10-7 15-10 16-8z" fill="#1E080A"/>
<path transform="translate(839,564)" d="m0 0h3v6l3-6h1l3 17 5 13 6 8 8 9 11 9 10 8 29 19 16 8 16 6 20 4 10 9 10 8 14 14 1 7v14l-1 14h-1l-1-10v-13l-2 5-4 5h-6l-6-4-8-7-28-12-11-6-18-11-10-7-4-4v-2l-4-2v-2l-4-1-2-1v-2l-3-1-3-4v-2l-4-2-10-10-1-3h-2l-3-4v-2l-3-1-4-6v-3h-2l-2-5v-3l-3-1v-5l-3 1-2-10-8-8-2-6-1-2z" fill="#F9B7A0"/>
<path transform="translate(624,524)" d="m0 0h3v8l-5 12-8 18-3 13v9l4 12 9 16 10 18 10 17 7 12 11 23 15 28 13 28 18 43 9 27 16 64 11 45v3l-10 5h-2l-2-13-3-13-7-31-3-13-5-18-2-12-4-16-10-30-14-34-13-28-12-24-8-14-8-16-10-21-3-4-1-5h-2l-3-6-6-10-6-11-7-15-1-5v-19l3-9h2l1-8h2l2-8 6-11h2l1-4h2z" fill="#1E080B"/>
<path transform="translate(1056,394)" d="m0 0 5 2 11 6 9 4v2l7 2v2l9 3v2l4 2 10 9 5 7 2 11-3 6h-2l-1 4h-2l-2 5-10 7-7 3h-14l-16-3-20-7-21-7-12-5-1-2h-5v2l-16 5-7 1-30 1-7 11-5 6-6 3-1-1-5 5-2 1-3 9v5l2 2v5l-4-1v12l5 19 6 15 2 6-9-2-11-3-1-1-1-9-5-13-3-2v-12l-1 2h-2l-1-2v-14l10-7 9-7 16-16 7-6 4-6 1-6 8-2 31-1 16-5 7-4 3-4h2l2 8 19 8 37 12 16 1 9-2 8-5 1-3-10-8-9-9-8-12-10-14-5-5 8 2-4-4-8-5z" fill="#1D070A"/>
<path transform="translate(979,198)" d="m0 0h4l-2 7-4 5-3 3-2 3h-3v2h-3l-1 3-3 3-3 4h-2v2l-5 5-11 10-2 3h-2l-1 3-2 2v2h29l13 2 17 6 14 7-2 1-11-3v-2l-7-1-12-4-18-2-7 1v1l12 1v1h-58l-43 2-49 3-21 3-10 3-8 7-6 12-12 36-9 34-12 36-9 33-11 35-10 25-5 9-4 5-3 1 1-8 13-36 15-47 9-33 21-66 10-29 4-9 6-9 13-7 25-4 73-4 41-1 28-28h2l1-3 7-6 7-8z" fill="#1A0609"/>
<path transform="translate(859,138)" d="m0 0h4v9l-9 26-8 20 5-3 4 1v2l-2 2-4 1v2l-7 6h-2v3l-14 8-18 13-12 9-11 9-10 9-12 11-2 6-1 2-5 3-17 28-9 17-13 31-15 43-11 29-9 20-8 16-11 23-10 18-8 14-8 11-4 2 2-10 8-19 11-21 9-16 14-29 13-29 9-23 8-24 6-16 13-30 13-24 14-21 11-12 15-13 13-11 15-11 20-14 8-5h2l2-9 9-26 8-24z" fill="#1A0609"/>
<path transform="translate(817,720)" d="m0 0 10 1 24 4 5 4v7l-4 6-9 8-8 4-15 5-12 2-21 1-17-1-12-4-3-3-1-5 2-10 4-5 12-6 15-4-6-1v-1z" fill="#E7473C"/>
<path transform="translate(1035,105)" d="m0 0h1v11l-3 12-5 12-6 10-9 11-9 10-7 8-9 10-5 6-17 17-2 3h-2l-2 4h-2l-2 4-4 3v-2l-4 2h-4v2l-4 1-1 3-6 5-2 4-11 7-8-1-4-4 3-6 7-8 9-9h2v-2h2l2-4 5-5 11-9 7-6 9-9h2v-2h2v-2h2l1-3 5-5 10-11 1-2h2l1-5h2l1-3h2l2-4 4-6h2v-2h2l1-4 8-7-1-2 1-2h2v-2l-4 1 3-3 11-8z" fill="#F9BAA2"/>
<path transform="translate(865,542)" d="m0 0h13l18 3 16 5 18 8 16 9 6 4-1 5-7 6-11 5-4 1h-25l-16-3-15-6-19-10-5-6-1-2v-9l6-7z" fill="#E7473C"/>
<path transform="translate(957,258)" d="m0 0 18 2 15 5 4 1v2l6 1 10 2 17 10 13 8 12 6 10 4v2l8 2v2h3v2h3v2l4 2 5 4 2 4 2 1 3 9-1 8h-2l-2 4-8 9h-2l-1 3-3 2h-3v2l-16 6-21 3h-12l-3-3-10-2-14-4-12-5-4-2v-2h-2v-2l-2-1h7l21 9 11 5 21 1v-2l10-2 12-3 16-8 1-3-14-8-11-8-10-9-7-7-9-12-4-7-2-7-8-5-14-7-18-6-14-3-17-1 4-3z" fill="#1B070A"/>
<path transform="translate(925,1260)" d="m0 0h3l1 26v27l-1 30-1 13-1 40-1 21-1 217-3 34-10 61-2 7h-7l1-8 7-44 4-33 2-30 1-25 1-42v-51l-1-28v-52l3-64 2-41 1-35 1-4z" fill="#100408"/>
<path transform="translate(1012,703)" d="m0 0 8 4 15 11 11 7 20 13 9 6 9 19 5 14v3h-5l-11-5-23-10-30-10-10-3-1-1v-9l2-13z" fill="#F8B39C"/>
<path transform="translate(812,267)" d="m0 0h46l-4 7-6 2-11 3-17 3h-5v-6l-11-1-1 2 5 1 3 1 1 3-7 2-3-4-10-3h-6l-1 3 7 2 12 3-2 5-3 2-17 1 2 2 8 1-3 10-7 15-3 7-4 9-5 9h-2l-1 5-6 10-6 9-5 2-3-1-1-3 1-8h2l1-15 7-26 9-26 6-12 9-8 10-3z" fill="#FEE6DA"/>
<path transform="translate(853,581)" d="m0 0 4 2 4 8 9 11 14 12 18 13 20 13 9 5 3 3 13 6 24 6 11 9 9 7 7 6v2l4 2 1 3 4 2 4 4v42l-1 5h-2v11l5 2 7 1 30 10 11 6 1 2-7-1-44-14-10-2-40-16-25-7-18-4-18-2h-27l-7-1 2-3 10-1h42l15 4 15 3 16 5 20 8 4 3 12 3 3-21v-34l-4-2-10-10-7-4-14-12-20-4-19-7-15-8-31-21-13-11-10-9-7-9-4-7-1-7z" fill="#0F0408"/>
<path transform="translate(1020,769)" d="m0 0h5l7 3 18 6 9 4v2l4 1 2 1v2l4 2 8 10 8 6 9 13 2 12 2 5 3 10 2 16-1 5-5-1-1-3-5-2-4-5-9-13-7-11-7-10-6-8-4-4v-2l-5-2-5-5-15-10-14-9-2-5v-5z" fill="#FFEEE2"/>
<path transform="translate(926,480)" d="m0 0 1 2 17 2 10 4 10 7 9 7 15 14 7 7 7 8 7 10v5l-7 1-15-2-13-5-11-7-14-11-13-11-5-5-7-8-3-7v-5z" fill="#E7473C"/>
<path transform="translate(904,922)" d="m0 0h8l7 2 2 2 8 1-3 7-4 4v2l5-2 3-4h7l3 7h4l2-2 3 2v6h-2v2h-2l-2 4-4 4 6-2 4-2v-2h2l1-3 4 2 5 19 4 14v9l-3 3-4-1-6-4-5-5-7-6-2-5-4-2-7-6-11-8-6-5v-2l-4-2-8-7-2-3-1-7 6-9z" fill="#FEECE0"/>
<path transform="translate(950,332)" d="m0 0 5 1 8 8 13 9 12 6 6 2v1l-8-1-12-6-7-3-9-5-1-4-6-1-12 3h-10l-12 3-11 2-7 5-10 1-6 11-6 5-5 9-6 3-5 7v2l4-1 3-1 2-5 3-2 7-2 4-1-4 5-8 7-11 13-7 9-3 5-4 4 2-18 7-37 4-15 5-12 2-1 11 1h25l20-2 23-3z" fill="#FEE7DA"/>
<path transform="translate(858,63)" d="m0 0 3 4 2 7v30l-5 28-7 26-9 25-2-3v-5l-3 1-2 4-4 4h-2v2l-7 3-2-1v-7l1-8h2l1-7h2l1-5 2-4h2l1-8 3-2 4-13 2-6 2-11-1-5 1-2v-7l1-2-2-4 7-11 6-12z" fill="#F9B8A1"/>
<path transform="translate(1027,82)" d="m0 0h6l5 5-4 10-7 9-14 11-26 14-10 4h-8l-9-4-1-3 2-1v-2h2l1-5v-3l11-7 10-7 15-10 16-8z" fill="#E7473C"/>
<path transform="translate(621,1555)" d="m0 0 2 2 1 9-2 2h-3v10l-4 12 2 1 1 1 4-4-1 7-12 48-15 43-9 27-6 22-3 2h-7l-2-2 3-10 6-22 5-16 6-17 9-24 5-15 10-42 7-24z" fill="#130509"/>
<path transform="translate(989,681)" d="m0 0 4 2 13 13v32l-3 19-1 2-9-1-6-3-9-4-12-5-9-3-15-4-14-3-8-2h-42l-10 1-1 1 6 1v1h-9l1 8-7 11-8 7-17 8-17 5-7 1h-31l-4-1-1 4-12-7-8-7-2-4 1-9 4-8 5-6 8-5 8-2h16v1l-14 3-12 4-9 6-2 4-1 9 1 6 10 3 4 1 22 1 23-2 17-5 9-4 8-6 5-6 1-2v-7l-4-3-28-5v-1l15-1 17 2 4 1h17l10-1h22l22 2 22 5 18 6 17 8 12 5 2 1 3-31v-14l-1-7-14-14z" fill="#0F0408"/>
<path transform="translate(1123,663)" d="m0 0 6 1 10 4 13 10 13 11 1 5 5 5 5 7 6 15 4 11 5 10 2 7 1 7-2 2-5-5-7-9-6-12-3-3-3-6-8-10v-2l-3-1-7-9-6-7-11-9-5-4-5-5-2-9z" fill="#FEE9DD"/>
<path transform="translate(1024,291)" d="m0 0 9 1 17 2 12 5v2l8 2v2h3v2h3v2l4 2 5 4 2 4 2 1 3 9-1 8h-12l-15-6-13-9-13-13-7-8-7-7z" fill="#E5463B"/>
<path transform="translate(706,485)" d="m0 0 1 4-2 4 7 1 2 8 2 33 2 15 1 6 1 8 2 6 4 19 1 11 1 6v5l-5-5-7-19v-2h-2l-5-9-3-8-2-14-2-6-2-10 1-28 2-12-9 11-3 1-1-1 1-10h2v7l5-5z" fill="#F9BBA3"/>
<path transform="translate(924,509)" d="m0 0 7 6 9 8 13 10 10 7 16 8 5 2-4 2-2 4-3 7-5 4 12 5 3 1v2l-10-3-17-6-16-8-4-5-8-19-5-16z" fill="#F8B59D"/>
<path transform="translate(1199,1733)" d="m0 0 1 4 1 5-1 2h-2v2l-9 3-5 1-67 1h-455l-82-1-7-1-2-2v-5l-1-3 2-1h6l-4 2v6l23 1 46 1h285l44-1 91 1h80l38-1 8-1v-7l-1-2 11-1z" fill="#FFEEE2"/>
<path transform="translate(847,55)" d="m0 0 4 1 1 1v9l-5 12-9 16-9 11-9 8-17 10h-4l1-5 6-12 6-14 4-8h2l2-5 5-6h2l2-4 10-9z" fill="#E7473C"/>
<path transform="translate(730,912)" d="m0 0h1l1 13 12-6v-2l4 1 16-3h8l7 2 2 3-1 7-2 6-4 4-13 8-34-1-3-1 1 4h-2v-11l5-9 3-1z" fill="#E5473C"/>
<path transform="translate(855,577)" d="m0 0 6 2 16 9 11 4 11 2 11 1h21l-1 2-3 1h-17l-23-3 4 6v2h2v2l5 2 5 4v2h2l4 5 6 3 3 2 2 7h-2v4l6 5v2l-5-2-21-14-16-12-14-12-8-10-5-10z" fill="#F8B19A"/>
<path transform="translate(950,326)" d="m0 0 7 1 11 7 14 9 23 10 15 4 14 1v2h-21l-28-12-5-2h-4v2h2v2l7 2 9 4 16 5 8 1 2 3h-7l-12-3-9-4-10-4-9-5-12-9-8-7-5 1-8 2-24 3-13 1h-25l-12-1-2 1 2-6v-2l-3-1h49l35-4z" fill="#1A0609"/>
<path transform="translate(753,322)" d="m0 0h1l-1 8-2 5-1 8-2 3-1 7-6 20-6 17-2 12-8 30-11 35-10 25-5 9-4 5-3 1 1-8 13-36 15-47h2l1-7 2-7 3-8 2-8 8-24 4-14 3-6 1-4 2-4 2-10z" fill="#110408"/>
<path transform="translate(896,497)" d="m0 0h1l1 16h2l1-8h1v18l4 4 4 11 1 9 20 6 1-2v5l8 6 11 6 3 4-2 6-5 5-9 5-8 3h-13l-24-3-14-4-11-5-13-5v2l2 1h-2l1 6-3-1-2 2-1 3-4-16-2-12 1-10 3-5 5-3 8-2h13l27 5-2-11h-6l-1-3 2-10zm-31 45-11 3-6 7v9l4 6 9 6 21 10 15 4 7 1h25l11-4 9-6 3-3-1-5-21-12-20-9-18-5-14-2z" fill="#1B070A"/>
<path transform="translate(809,259)" d="m0 0h13v1l-8 1-3 1-17 3 17 1 6-2 14-1h48v1l-67 4-21 3-10 3-8 7-6 12-12 36-9 34-11 32h-1l1-8 9-26 3-11v-5l2-2 2-11 2-5v-4l-2 3-2 10-2 4-2 6-4 11-5 17-5 14-5 20-3 8-1-4 9-32 17-54 10-30 6-16 7-10 13-7z" fill="#1B070A"/>
<path transform="translate(859,138)" d="m0 0h4v9l-9 26-8 20 5-3 4 1v2l-2 2-4 1v2l-7 6h-2v3l-14 8-18 13-20 15-5 2-2 2-3-1 7-8 6-7 15-11 20-14 8-5h2l2-9 9-26 8-24z" fill="#100408"/>
<path transform="translate(858,330)" d="m0 0 8 2 1 4-2 2-4 13-6 24-6 34-1 11 4-5 3-5 5-5 7-6 2 1-1 6-9 11-15 16-16 16-4 1 2-5 8-10 3-8 5-24 7-37 6-21 3-7-1-7z" fill="#110408"/>
<path transform="translate(877,1315)" d="m0 0h2l1 29-1 15v10l-2 33-1 30-1 5v5l-1 5-2 22-2 4-2-1v-67l1-14 2-39 3-29z" fill="#FABCA4"/>
<path transform="translate(831,899)" d="m0 0 17 1 19 5 6 2 15 2 21 6 13 2 8 3 1 2-11-1-7-2h-10l-37-8-12-4-13-2h-16l-19 3-13 6-7 11-4 5-5 3 3-9-1-6-7-2h-8l-18 3 3-3 15-3 16-2 12-4 8-4 14-1 4-2z" fill="#0F0408"/>
<path transform="translate(645,1480)" d="m0 0 4 1v13l-8 30-11 40-7 24-6 5-2-3 1-7 2-5 1-10 4-2-1-17 6-19 2-7 5-1v-10l6-18 1-4 2-9z" fill="#120508"/>
<path transform="translate(914,493)" d="m0 0 4 1v19l5 19 6 15 2 6-9-2-11-3-1-1-1-9-5-13-3-2 1-20 5-5z" fill="#FDE1D4"/>
<path transform="translate(901,812)" d="m0 0h5l6 2 9 2 16 8 21 12 16 9 17 8 8 4 3 4 1 8 3 7 1 4v7l-4-2-5-17-1-4-4-2-14-5-23-13-22-13-21-11-11-5z" fill="#110408"/>
<path transform="translate(923,368)" d="m0 0h13l15 2 23 2 7 2h33l9 3 14 6 14 8 6 4v2l5 2 7 5v2l-6-1-7-3-10-7-12-7-15-6-8-2-31-1-38-4-10-1v-2l-5-1-4-2z" fill="#100408"/>
<path transform="translate(835,54)" d="m0 0 2 2-5 4-7 8-8 10-4 8-16 26-8 16-11 18-9 11-6 9-2 2 1-9 5-5 4-9 10-19 9-19 9-15 6-7 3-1 7-8 6-9h2v-4h2l1-5h3v-3l6 1z" fill="#FDE3D6"/>
<path transform="translate(1013,687)" d="m0 0 6 2 9 6 15 11 10 6 10 3 8 5 9 8v2l6 2v2l6 2 4 4 1 3-5-1-15-7-7-2-23-15-11-7v-4l-5-2-7-6-9-7-3-4z" fill="#FCCCB6"/>
<path transform="translate(851,1558)" d="m0 0h2l1 6-2 27-5 40-4 28-5 27-3 8-2-2v-11l2-18 4-25 2-12 2-16 2-12 4-28z" fill="#FABCA4"/>
<path transform="translate(1163,1008)" d="m0 0h1l1 8 1 19v33l-1 13-4 22-2 10-4 12h-3l-1-2 3-18 2-19 2-18 1-20v-18l2-19z" fill="#FABCA4"/>
<path transform="translate(928,1210)" d="m0 0h1l-1 22 2-3 2-15 2-3-1 15-2 26-1 62-3 83-1 22-1 187h-1v-189l1-21 1-40 1-13 1-36v-47h-3v19h-1v-30l2-26z" fill="#1B070A"/>
<path transform="translate(1079,413)" d="m0 0h6l9 3 3-1v2l4 2 10 9 5 7 2 11-2-1-9 1-9-6-8-7-10-13-2-3z" fill="#E6473C"/>
<path transform="translate(824,898)" d="m0 0h20l14 2 17 5 34 7 16 3 14 6 19 14 10 10 11 8 13 11 10 7-2 1-6-3-13-11-8-7-9-6v-2l-5-2v-2l-5-1 7 8h-3l-11-10-10-7-10-5-18-4 4-2 13 3h4l-11-4-13-2-18-5-15-2-16-5-9-2-17-1-13 1-4 2h-12l3-2z" fill="#1A0609"/>
<path transform="translate(1161,1557)" d="m0 0 4 1 2 8 2 17 1 2 3 24 3 15 2 13v11l-3 2-4-15v-3h-2l-7-40v-14l-1-13z" fill="#0F0408"/>
<path transform="translate(979,454)" d="m0 0h6v2h-6v2l-14 2-15 9h-2v7l7 3 6 2 5 5 4 6v4h-2v-2l-4-1-20-12-12-3v-3l7-5 9-14 1-1z" fill="#FDDED1"/>
<path transform="translate(948,449)" d="m0 0h18l3 2-2 2-17 1-8 13-5 6-6 3-1-1-5 5-2 1-3 9v5l2 2v5l-4-1-1-7-5 1-8 6-2 4-2 8h-2l-1-2v-14l10-7 9-7 16-16 7-6 7-11z" fill="#100408"/>
<path transform="translate(1127,864)" d="m0 0 4 3 5 11 6 16 4 12 4 10 6 18 3 11v3h2l2 12v7l-2 2-5-8-2-6-3-16-12-36-6-17-3-7-4-14z" fill="#0F0408"/>
<path transform="translate(989,681)" d="m0 0 4 2 13 13v32l-3 19-1 2-9-1-6-3-9-4-12-5-9-3-15-4-14-3-8-2h-42l-10 1-1 1 6 1v1h-9l-1 2-3-5-7-2 3 4-1 2-4-3-28-5v-1l15-1 17 2 4 1h17l10-1h22l22 2 22 5 18 6 17 8 12 5 2 1 3-31v-14l-1-7-14-14z" fill="#1B070A"/>
<path transform="translate(660,1439)" d="m0 0 1 3-7 31-4 16h-2l1-8h-4l-2 10-3 7-3 12-1 2-1 10h-2l-1 2-2-1 4-17 13-52 2-7 2 1v6l4-2 2-10z" fill="#290B0D"/>
<path transform="translate(979,198)" d="m0 0h4l-2 7-4 5-3 3-2 3h-3v2h-3l-1 3-3 3-3 4h-2v2l-5 5-11 10-2 3h-2l-1 3-2 2v3 3l-2 1h-9v-4l7-9 21-21h2l1-3 7-6 7-8z" fill="#0E0408"/>
<path transform="translate(572,1738)" d="m0 0h6l-4 2v6l23 1 46 1 180 1-2 2h-159l-82-1-7-1-2-2v-5l-1-3z" fill="#FFEEE2"/>
<path transform="translate(915,1029)" d="m0 0 7 6 4 7 3 5 2 1v2h5l8 7v2h2l1 2 4 2 6 8 5 5 2 7-1 2-3 1 1 6 3 3-1 5-5-2-11-16v-4l5 1 3 2-4-6-12-11-2-5-11-12-6-7-5-9z" fill="#FBC3AE"/>
<path transform="translate(739,961)" d="m0 0 2 4v2l6-1 1 2h-2l-1 28-1 42-2 21h-1l1-24v-17l-1-5-2 12-1 15-1 3-2 26-3 11h-1l1-12 2-13 2-31 1-27z" fill="#1B070A"/>
<path transform="translate(1147,670)" d="m0 0 5 2 5 3v2l5 2 4 4v2h2v2l3 1 8 8v2h2v2h2l5 11 3 9 12 30 2 11-1 4-8-20-10-23-1-5h-2l-5-12-7-9-10-10-11-9-3-4z" fill="#0E0408"/>
<path transform="translate(896,497)" d="m0 0h1l1 16h2l1-8h1v18l4 4 4 11 1 9 20 6 1-2v5l8 6 11 6v3l-21-12-20-9-10-3 1-6-2-8h-6l-1-3 2-10z" fill="#1F080B"/>
<path transform="translate(859,138)" d="m0 0h4v9l-9 26-8 20 2 1-3 3h-2v2l-7 2 2-9 9-26 8-24z" fill="#1B070A"/>
<path transform="translate(733,1295)" d="m0 0 2 2-5 18-9 34-4 16-8 30-9 31-7 22-2 2-1-2 2-11 3-9 14-49 9-35 11-38z" fill="#FABCA4"/>
<path transform="translate(663,1392)" d="m0 0 3 1v23l-4 21-4 5-2 12h-3-2l-2-8 6-26 3-17 1-1 1-7h2z" fill="#140509"/>
<path transform="translate(993,754)" d="m0 0 5 1 18 6 37 12 19 9 12 6 7 6 8 14 6 11 9 21 4 11-1 3-9-23v-2l-4-2-7-14-3-4-5-10-5-6-8-5-21-9-13-6-28-9-17-5z" fill="#F28D7A"/>
<path transform="translate(1219,852)" d="m0 0h1l5 34 6 52 3 25 3 22 3 10v7h-2l-3-11-4-17-5-33-2-30-2-10-2-28-2-15z" fill="#F39480"/>
<path transform="translate(950,326)" d="m0 0 7 1 11 7 14 9 23 10 15 4 14 1v2h-21l-28-12-5-2h-4v2h2v2l7 2 9 4 16 5 8 1 2 3h-7l-12-3-9-4-10-4-9-5-12-9-8-7 3-1-1-3-6-1z" fill="#1C070A"/>
<path transform="translate(931,646)" d="m0 0 9 3 10 4 20 5 6 3 9 8 11 9 8 8 28 21 13 9 16 10 15 10 1 2-4-1-19-12-10-7-27-18h-3v2l5 2 14 11 15 9 2 1v2l4 1v2l-5-2-15-10-14-10-7-4-1 25h-1l-1-17v-11l1-6-4-2-7-8-5-5-14-11-10-8-24-6-16-8z" fill="#1B070A"/>
<path transform="translate(792,784)" d="m0 0 10 2 12 4 13 6 22 7 18 4 24 1 3 1v2h-26l-15-1-25-7-18-8-12-5v-2l-5-2z" fill="#0F0408"/>
<path transform="translate(809,259)" d="m0 0h13v1l-8 1-3 1-17 3 17 1 6-2 14-1h48v1l-67 4-21 3-10 3-8 7-2-1 4-6v-1l-5 1v2l-3 1 2-5 5-4 10-5z" fill="#1C070A"/>
<path transform="translate(777,723)" d="m0 0h16v1l-14 3-12 4-9 6-2 4-1 9 1 6 10 3 4 1 22 1 23-2 17-5 9-4 8-6 5-6 2-9 2 2-1 7-7 9-7 6-5 3-14 4-19 3-7 1h-22l-2-1-11-1v2l-4-2-6-5-2-4 1-9 4-8 5-6 8-5z" fill="#1B070A"/>
<path transform="translate(1251,922)" d="m0 0 2 3 6 17 6 27 1 7v45l-4 28-4 18-2-2 1-10 5-35v-30l-1-22-1-1-3-19-3-11-4-12z" fill="#F18977"/>
<path transform="translate(890,257)" d="m0 0h5l-2 4-2 1-9 1-51 1-14 1-8 2-15-1-1-2 13-2 7-1 1-1 8-1 24-1z" fill="#0E0408"/>
<path transform="translate(995,359)" d="m0 0 6 2 12 3 8 1h12l19-2-1 2-17 3-11 1-1 4 4 1-2 1-11-3-43-1-38-4-20-1 1-2h19l26 2 17 2h26l1-3-3-3-4-2z" fill="#FBD5C8"/>
<path transform="translate(1009,435)" d="m0 0 2 2-1 7-6 1v2h-2v2l-16 5-7 1h-30l1-2 17-1 1-1-2-1h-18l-4 3v-4l8-2 31-1 16-5z" fill="#1B070A"/>
<path transform="translate(673,1327)" d="m0 0 1 4-4 15-1 4-2 10v3l4-3 3-7h1l-1 9-7 47-1 5h-1v-21h-2l-1 2h-2v7h-1v-10l4-27 6-26z" fill="#240A0C"/>
<path transform="translate(893,163)" d="m0 0 5 1-2 4-5 5-16 10-25 17-9 6-1-2 7-6h2v-2l3-2 3-1-1-2-3-2 11-7 10-7 15-9z" fill="#19070A"/>
<path transform="translate(1015,728)" d="m0 0h2v2h2l1 4 5 8 16 11 2 1v2l3 1 1 3-7-1-27-9-3-2v-7h2v-6z" fill="#FCCCB6"/>
<path transform="translate(1086,1119)" d="m0 0h1l1 7v10l1 18-1 33-1 20-2 15h-3v-20l1-10v-32l1-15 1-25z" fill="#FABCA4"/>
<path transform="translate(648,1489)" d="m0 0h1l-1 9-17 63-8 27-6 5-2-3 1-7 2-5 1-10 7-4 2-5 1-5 3-10 2-9 3-9 2-7 2-4 4-21z" fill="#1B070A"/>
<path transform="translate(1013,699)" d="m0 0 5 1 11 7 45 30 4 2 4 6 4 13-1 2-3-5-6-12-12-5-10-7v-3l-4-1v-2l-6-2-15-10-11-9-4-2z" fill="#0E0408"/>
<path transform="translate(740,1012)" d="m0 0 2 1 1 8v14l-2 31-2 12-2 1-2 4-3 1-1-4 3-12 2-25 2-13 1-14z" fill="#0E0408"/>
<path transform="translate(750,961)" d="m0 0 9 1 10 4 14 4h20l7 3 1 4h-21l-15-2-15-5-8-5z" fill="#F9B9A4"/>
<path transform="translate(957,258)" d="m0 0 18 2 15 5 4 1v2l6 1 7 2 13 8 2 3v4l-4-2-17-9-18-7-21-5-17-1 4-3z" fill="#0F0408"/>
<path transform="translate(936,367)" d="m0 0 17 1 17 2 43 1 16 5 16 9 11 8-2 1-10-6-13-7-10-4-7-2h-34l-6-2-34-3-4-1z" fill="#1B070A"/>
<path transform="translate(1012,84)" d="m0 0h7l-3 2-16 8-12 8-13 9-9 6h-2v2l-8 4 1-4 2-3h2v-2l5-2 2-4 5-4 1-2 16-8 10-6z" fill="#FEE9DC"/>
<path transform="translate(621,1555)" d="m0 0 2 2 1 9-2 2h-3v10l-4 12 2 1 1 1 4-4-1 7-2 8h-2v-6l-4 1-3 13-2 5-2 10-2 3-2-1 4-19 11-42z" fill="#340F10"/>
<path transform="translate(999,858)" d="m0 0 4 1 2 9 5 16 4 20 4 25 1 9v22l-2 11h-1l1-12v-15l-4-29-3-15-2-6-4 6-5-24-3-9 1-3 5 13 2 8 3 2-2-11-3-7-1-8z" fill="#1B070A"/>
<path transform="translate(1230,909)" d="m0 0h4l2 10 4 33v10l-1 1-1 10-2-2-3-21-2-23-1-6z" fill="#0E0408"/>
<path transform="translate(974,345)" d="m0 0h7l21 9 11 5h21l16-1 1 2-9 3-9 1h-14l-1-1-10-2-14-4-12-5-4-2v-2h-2v-2z" fill="#0E0408"/>
<path transform="translate(879,141)" d="m0 0 5 1 3 3-1 7-6 9-7 6-5-2-1-5 6-12z" fill="#FFEEE2"/>
<path transform="translate(941,1162)" d="m0 0h1l-1 15-1 1 2 1-1 7-6 25h-2l-1 12-2 9-2 2-1-6 2-22 5-19 6-20z" fill="#140508"/>
<path transform="translate(883,323)" d="m0 0 21 2 9 1v2h7l-2 2-21 2h-13l-4-1-14-1-1-2 6-3z" fill="#FCCCB5"/>
<path transform="translate(642,477)" d="m0 0h1v10l4-2 3 1-12 25-6 18 2 1-3 3-4-1 2-9 6-23 6-20z" fill="#F7AB97"/>
<path transform="translate(929,1063)" d="m0 0 8 6 5 6 1 4v6l3 7v8l1-9 1-4-4-7 1-4 3 1-1-6 7 6 1 4-5-2-3-1 3 7 10 15 1 5-6-4-6-8v22h-1v-6l-4-1v7h-1l-2-29-2-11-10-10z" fill="#1B070A"/>
<path transform="translate(975,337)" d="m0 0h7l9 3 7 1 1 3h4l1 2 4 1 10 5 3 4h-10l-25-10-8-4v-3l-3-1z" fill="#FBC2AC"/>
<path transform="translate(1183,696)" d="m0 0 4 2 4 8 4 12 13 30 7 24 1 14-2-3-7-26-10-24-8-20-4-12z" fill="#EE7666"/>
<path transform="translate(805,969)" d="m0 0 9 3 12 6 13 3v1l-8 1 3 2-7-1-2-1-14 1h-19l-12-1v-1h22l15-1 5-1-8-4v3l-5 1-16-1-17-2-5-2 4-1 15 2 21 1-1-3-5-3z" fill="#1A0609"/>
<path transform="translate(1035,105)" d="m0 0h1v11l-3 12h-2l-1 5-5 4-1-5v-7l-3-1 1-5 2-4 8-7z" fill="#FABFAA"/>
<path transform="translate(1069,782)" d="m0 0 6 1 9 5 7 6 8 14 6 11 9 21 4 11-1 3-9-23v-2l-4-2-7-14-3-4-5-10-5-6-8-5-3-3z" fill="#F08271"/>
<path transform="translate(736,958)" d="m0 0 3 3v22l-1 14-2 45-2 20-3 18h-1v-8l1-7 1-22 2-6 1-21z" fill="#F29080"/>
<path transform="translate(1246 1e3)" d="m0 0 2 1 1 32-1 11-2 6h-2l-1 4h-2l1-19 1-15 1-3h2z" fill="#0E0408"/>
<path transform="translate(1193,742)" d="m0 0 2 2 8 24 9 40 5 24v6h-2l-5-22-7-26v-11l-4-17-6-17z" fill="#EE7564"/>
<path transform="translate(724,943)" d="m0 0 35 1-2 2-18 5v3l4 2 2 3-6-1h-3l-5-7-6-4z" fill="#1B070A"/>
<path transform="translate(913,364)" d="m0 0h19l26 2 17 2 34 1v2h-39l-38-4-20-1z" fill="#F28E7C"/>
<path transform="translate(737,1078)" d="m0 0h1l-1 11-8 36-7 28h-1l1-11 5-19 3-14 2-13-4 1-1 3 1-9 2-11 2 3 3-1z" fill="#1B070A"/>
<path transform="translate(1199,1733)" d="m0 0 1 4 1 5-1 2h-2v2l-9 3-5 1h-41l1-2 37-1 8-1v-7l-1-2 11-1z" fill="#FEE7DB"/>
<path transform="translate(1021,972)" d="m0 0 7 1-1 5v7l3 1v2h2l3 4v2h2v2l3 1v2l4 2 5 4v2l-4-2-13-10-9-7-3-5-5-3 1-3h2l1-4z" fill="#FCC9B3"/>
<path transform="translate(780,911)" d="m0 0 4 1v4l5-1 3-1-2 5-8 11-5 3 3-9-1-6-7-2h-8l-18 3 3-3 15-3z" fill="#1B070A"/>
<path transform="translate(877,172)" d="m0 0 2 1-5 5-5 1v2l-2 2 2 4-19 13-9 6-1-2 7-6h2v-2l3-2 3-1-1-2-3-2 11-7 10-7z" fill="#23090C"/>
<path transform="translate(866,399)" d="m0 0 3 1-1 6-9 11-13 14-1-2 5-8 1-5 4-6 5-5z" fill="#150609"/>
<path transform="translate(800,903)" d="m0 0h10l1 1h14v1l-19 3-17 8-5 1-2-4 2-3 12-5z" fill="#100408"/>
<path transform="translate(603,1654)" d="m0 0 1 3-15 43-10 35-3 2h-7l-2-2 1-3 4 2-1 1 6-1 5-21 16-48 4-10z" fill="#1B070A"/>
<path transform="translate(678,726)" d="m0 0 3 1 9 19 3 8v4l-4-2v-2h-3l-8-18z" fill="#100408"/>
<path transform="translate(1165,690)" d="m0 0 7 6 7 9 5 12 6 16 2 4-1 3v-2h-2l-5-8-7-19-3-6-6-8v-2l-3-1z" fill="#F7AD99"/>
<path transform="translate(824,898)" d="m0 0h20l14 2 17 5 15 3 1 2-18-2-16-5-9-2-17-1-13 1-4 2h-12l3-2z" fill="#1B070A"/>
<path transform="translate(894,718)" d="m0 0h11l18 2 6 1v2l-21-1h-22l-10 1h-17l-4-2 3-1h18z" fill="#F39582"/>
<path transform="translate(856,583)" d="m0 0 2 2 5 9 9 10 11 9 19 14 15 10-3 1-16-10-20-15-3-3-8-7-6-8v-2l-3-1-2-4z" fill="#1B070A"/>
<path transform="translate(972,217)" d="m0 0v3l-22 22-6 7v4h20l4 3-34-1 6-7 8-8 8-7z" fill="#F49F90"/>
<path transform="translate(884,378)" d="m0 0 2 1-4 4-2-1zm-6 5 2 1-7 7 4-1 8-6 5-1-22 22 1-5-4 1-5 4 2-4 12-14zm-19 22v3l-2-1z" fill="#360F10"/>
<path transform="translate(858,63)" d="m0 0 3 4 1 3v32h-1l-1-15h-6l-2-2 1-6z" fill="#FBC1AC"/>
<path transform="translate(950,332)" d="m0 0 5 1v1l-14 4-24 3-19 1h-11l-16-1-1-2h33l20-2 23-3z" fill="#F3917E"/>
<path transform="translate(914,811)" d="m0 0 14 3 9 4 5 5 7 4 2 4-5-1-20-11-11-5z" fill="#F9B7A1"/>
<path transform="translate(859,138)" d="m0 0h4v9l-4 12-3 3-3 5h-1v-11l3-8 2-7z" fill="#0E0408"/>
<path transform="translate(768,260)" d="m0 0 2 1-6 6v7h3v-3l3 1-6 11-10 28-2 6h-1v-8l4-10 1-5h2l2-9 2-5-6-2-2-1 3-3h3l2-8zm-5 14-2 4 3 1 1-4z" fill="#F49783"/>
<path transform="translate(1015,971)" d="m0 0 1 4-2 5 6 5 26 20 12 9 10 9 3 3-1 2-9-8-4-3v-2l-5-2v-2l-5-2-11-9-11-7v-2l-4-2-7-5-2-3v-5h2z" fill="#1B070A"/>
<path transform="translate(1082,635)" d="m0 0 5 2 15 9 19 10 15 10-3 1-7-3v-2l-5-2-19-10-9-6-7-4-4-3z" fill="#F28C79"/>
<path transform="translate(1090,608)" d="m0 0 5 2 14 14 2 5 3 1 2 5h2l2 4v3l-3-1-8-10-1-3-3-1-5-6-2-1v-2h-2l-5-6z" fill="#0E0408"/>
<path transform="translate(987,126)" d="m0 0h4v3l-14 6h-8l-6-2-1-3 3-1 16-2z" fill="#F6A893"/>
<path transform="translate(774,1075)" d="m0 0 2 1v13l-3 18-4 2v-9l2-18z" fill="#FABCA4"/>
<path transform="translate(928,924)" d="m0 0 5 2 10 6 6 5-3 1-6-4-6-1-5 3-5 5-3-1 2-4 3-3 2-5 2-1z" fill="#F39380"/>
<path transform="translate(893,373)" d="m0 0h4l-1 5-8 6-7 4-4 2-1 2-4-1 8-8 5-4 5-5z" fill="#120508"/>
<path transform="translate(782,247)" d="m0 0 2 1-7 8-5 5v7l2 1-3 2h-4v3h-3l-1-7 16-17zm-19 27 2 1-1 4-3-1z" fill="#FBD1C2"/>
<path transform="translate(973,842)" d="m0 0 5 1 13 3 6 2v2h2v2h2v4l-12-3-6-3v-2l-6-2z" fill="#FCC7B1"/>
<path transform="translate(623,1566)" d="m0 0 2 3v7l-2 4-2 8-3 5-3-3 1-7 2-5 1-10z" fill="#0E0408"/>
<path transform="translate(1220,800)" d="m0 0 3 1 1 7 1 1 7 49 3 4 2 9-3-3-4-8-2-8-2-21-5-23z" fill="#EA5B4E"/>
<path transform="translate(884,334)" d="m0 0h26l1 3-2 1h-34v-2l8-1z" fill="#0E0408"/>
<path transform="translate(634,504)" d="m0 0 1 2h4l-1 5-6 18 2 1-3 3-4-1 2-9z" fill="#F18A78"/>
<path transform="translate(672,335)" d="m0 0h1v16h-2v11l-2 14-2 6-1 5h-2l1-10 6-37z" fill="#F28F7D"/>
<path transform="translate(863,991)" d="m0 0 10 3 16 7 9 7 6 8 9 15 1 4-3-3-10-16-8-9-14-8-15-6z" fill="#1B070A"/>
<path transform="translate(948,449)" d="m0 0h18l3 2-2 2-17 1-3 5-5 1 1-5 3-5z" fill="#0E0408"/>
<path transform="translate(1e3 520)" d="m0 0 4 2 6 7v2h2l2 7v4l2 1-3 1-7-10-4-6-2-5z" fill="#1A070A"/>
<path transform="translate(617,1603)" d="m0 0 1 4-9 36-4 11-2-2 4-13 6-25 3-10z" fill="#1B070A"/>
<path transform="translate(1085,783)" d="m0 0 8 3v2h2l4 10 5 9-1 4-7-9-6-12-6-4z" fill="#0E0408"/>
<path transform="translate(670,619)" d="m0 0 3 1 7 12 6 15 1 8-2-2-9-19-5-10z" fill="#FABCA4"/>
<path transform="translate(1060,300)" d="m0 0 10 3v2h3v2h3v2l4 2 5 4 2 4 2 1v5h-3v-2h-2v-2h-2l-4-6-5-5-8-6-5-3z" fill="#2B0C0D"/>
<path transform="translate(1238,919)" d="m0 0h1v6h2l3 27 2 13v11h-1l-5-31-2-16z" fill="#F18977"/>
<path transform="translate(1234,888)" d="m0 0h2l13 27v2l-3-1-7-14-1 5v11h-1z" fill="#EF7A69"/>
<path transform="translate(1104,628)" d="m0 0 5 5 6 7v2l-5-1-19-10-1-2 10 3 2 1z" fill="#F59D8A"/>
<path transform="translate(865,573)" d="m0 0 6 1 25 9 1 2h-9l-15-6-8-4z" fill="#F5A18C"/>
<path transform="translate(728,1081)" d="m0 0h2l-1 10-6 27-3 12h-1l1-17 3-8 1-9 2-3z" fill="#F4A191"/>
<path transform="translate(1133,890)" d="m0 0h2l6 15 12 37 1 9-2-3-8-26-11-30z" fill="#1B070A"/>
<path transform="translate(1042,771)" d="m0 0 8 1 16 7 3 2v2l6 2 1 2-5-1-16-7-13-6z" fill="#F2907D"/>
<path transform="translate(739,358)" d="m0 0 1 4-5 15-4 11-5 20-3 8-1-4 9-32 7-21z" fill="#1B070A"/>
<path transform="translate(736,958)" d="m0 0 3 3v22l-1 14-2 4z" fill="#F6AD9D"/>
<path transform="translate(979,350)" d="m0 0 14 5 9 3 8 3 8 1 2 3h-7l-12-3-9-4-10-4-3-2z" fill="#2C0C0E"/>
<path transform="translate(1191,1717)" d="m0 0 3 3 2 10v6h-6l-1-1v-17z" fill="#0E0408"/>
<path transform="translate(883,607)" d="m0 0 8 3 7 6-1 5-9-3-2-4-3-2v-2l-3-1z" fill="#FCC8B2"/>
<path transform="translate(782,257)" d="m0 0 4 1 1 3-4 4-7 3h-4l-1-6 8-4z" fill="#FCEDEA"/>
<path transform="translate(1006,88)" d="m0 0 3 1-14 8-10 7-17 12-2-1 10-8 5-5 9-6z" fill="#FBC6AF"/>
<path transform="translate(961,536)" d="m0 0 6 2 8 4 10 4v3l-9-1-13-7z" fill="#100408"/>
<path transform="translate(933,1204)" d="m0 0h1v7l-3 16-2 7-2-2 2-23z" fill="#0E0408"/>
<path transform="translate(916,146)" d="m0 0 3 1-3 3h-2v2l-8 4h-2v2l-10 5-12 7h-2l1-3 15-8 13-9z" fill="#FCD8C9"/>
<path transform="translate(1229,921)" d="m0 0h2l1 6 2 23 2 11v10l-2-1-3-21-2-20z" fill="#1B070A"/>
<path transform="translate(1138,906)" d="m0 0 2 2 11 33v3h-2l-8-20-2-12z" fill="#F08371"/>
<path transform="translate(1083,620)" d="m0 0 4 2 9 2 7 5v5l-13-5-1-3-4-2-3-3z" fill="#FFEEE2"/>
<path transform="translate(624,524)" d="m0 0h3l-1 7-3 8-4 2-3-1 2-9h2l1-4h2z" fill="#0E0408"/>
<path transform="translate(852,175)" d="m0 0 2 2 2 6h4v-2l3 1-5 4-6 3-4 4h-2l3-10z" fill="#F9C3B4"/>
<path transform="translate(580,1690)" d="m0 0 2 3-1 7h-2v8l-2 4h-2v9l-2 6h-3l4-17 5-15z" fill="#3B1112"/>
<path transform="translate(1263,1020)" d="m0 0h1l-1 16-3 17-2 14-2-2 1-10 5-34z" fill="#FABCA4"/>
<path transform="translate(1144,900)" d="m0 0h2l10 28 4 15v5l-2-3-5-16-4-13-5-13z" fill="#1B070A"/>
<path transform="translate(914,1033)" d="m0 0 4 2 7 10 7 7v2l3 1 4 5-1 3-15-15-7-10z" fill="#F49884"/>
<path transform="translate(1009,742)" d="m0 0h1l1 6 10 4 21 7v2l-9-2-23-7-1-1z" fill="#F28C79"/>
<path transform="translate(587,1700)" d="m0 0 1 4-8 27-2 5-2 1h-7l-2-2 1-3 4 2-1 1 6-1 5-21 4-12z" fill="#1B070A"/>
<path transform="translate(1014,273)" d="m0 0 7 1 11 7v2l8 1 3 4-1 2-5-2-12-7-11-7z" fill="#FAC9BA"/>
<path transform="translate(993,973)" d="m0 0 5 2 17 12 8 6 10 9h-3l-15-12-10-7-9-7z" fill="#1B070A"/>
<path transform="translate(1052,291)" d="m0 0 10 3 5 5 1 4-6-2v-2l-5-1-10-4 4-1z" fill="#FDDED0"/>
<path transform="translate(914,1035)" d="m0 0 3 3 8 11 20 20-5-1-4-4v-2l-4-2-4-4v-2h-2v-2h-2v-2h-2l-8-13z" fill="#1B070A"/>
<path transform="translate(965,742)" d="m0 0 9 3 15 6 4 3-6 1-15-7-6-3z" fill="#F49A86"/>
<path transform="translate(776,271)" d="m0 0v3l-6 9-1 2h-2v2h-4l1-7 4-4h2v-2z" fill="#0F0408"/>
<path transform="translate(1188,736)" d="m0 0 1 2h2v2h2l4 13 6 21 1 10-2-2-5-22-2-8h-2l-2-9-3-4z" fill="#FABBA4"/>
<path transform="translate(973,656)" d="m0 0h7l9 8 1 5-5-2-8-6z" fill="#FDCDB7"/>
<path transform="translate(1009,925)" d="m0 0 4 8v25l-2 10h-1v-31z" fill="#1B070A"/>
<path transform="translate(849,982)" d="m0 0 7 1 9 4 8 3 4 4-6-1-11-3-1-3-7-2z" fill="#FBC5AF"/>
<path transform="translate(1039,391)" d="m0 0 5 2 11 7 3 3-8-1-6-2-2-4h-2v-2h-2z" fill="#F7AB94"/>
<path transform="translate(786,276)" d="m0 0 10 1 6 2-1 4-8-1-8-2z" fill="#381011"/>
<path transform="translate(835,54)" d="m0 0 2 2-5 4-7 8-4 3-1-2 1-2h2v-4h2l1-5h3v-3l6 1z" fill="#FEE8DA"/>
<path transform="translate(979,454)" d="m0 0h6v2l-6 1h-13l-7-1v2h-10v-3z" fill="#F7AB96"/>
<path transform="translate(613,592)" d="m0 0h2l5 10 10 17 5 8-1 3-3-4-10-18-8-14z" fill="#F2907D"/>
<path transform="translate(782,292)" d="m0 0h19l-1 4h-16l-3-3z" fill="#8F463E"/>
<path transform="translate(1009,435)" d="m0 0 2 2-1 7-6 2h-5v-3h2v-2h2l1-3z" fill="#0E0408"/>
<path transform="translate(704,487)" d="m0 0 1 3-6 11-4 5-3 1 1-8 3-8 1 4 1 3z" fill="#1B070A"/>
<path transform="translate(762,283)" d="m0 0 1 3-9 25-2 6h-1v-8l4-10 1-5h2l2-9z" fill="#F18876"/>
<path transform="translate(622,561)" d="m0 0 2 2 2 15 2 10-3-1-3-10-1-7v-8z" fill="#1B070A"/>
<path transform="translate(1021,544)" d="m0 0 7 4v2h2v3h2v2h2v4l-4-2-8-7-2-4z" fill="#0E0408"/>
<path transform="translate(1183,696)" d="m0 0 4 2 4 8 4 13h-2l-1 2-7-20z" fill="#F6A691"/>
<path transform="translate(1049,363)" d="m0 0 3 1-5 2-13 2h-12l-7-2v-1h18z" fill="#F39481"/>
<path transform="translate(1065,358)" d="m0 0h2l-1 3-11 5-12 2h-9v-1l17-3 9-4z" fill="#FEEBDE"/>
<path transform="translate(1012,84)" d="m0 0h7l-3 2-12 4-11 6-3-1 8-6z" fill="#FEE7DA"/>
<path transform="translate(941,1162)" d="m0 0h1l-1 15-1 1 2 1-1 7-1-4h-3l-1 7-2 5-1-4 7-23z" fill="#1B070A"/>
<path transform="translate(1031,957)" d="m0 0 3 1 2 5-1 9-3 4h-2l1-14z" fill="#150509"/>
<path transform="translate(619,615)" d="m0 0 5 4 9 17-1 3h-2l-2-5-3-5v-3l-3-1-1-6-2-1z" fill="#0E0408"/>
<path transform="translate(851,391)" d="m0 0h1v17l1 7-5 6-1-4z" fill="#F49A87"/>
<path transform="translate(647,662)" d="m0 0 2 3 7 14v3l-4-1-3-6v-5l-3-1v-6z" fill="#0E0408"/>
<path transform="translate(729,383)" d="m0 0 1 4-8 29-2-2 2-9 2-10z" fill="#F18674"/>
<path transform="translate(1128,879)" d="m0 0 2 3 8 21-1 3v-2l-3-1-6-18z" fill="#F08371"/>
<path transform="translate(874,168)" d="m0 0h5l1 3-14 9h-2l1-3h2l2-4z" fill="#FEE9DB"/>
<path transform="translate(866,86)" d="m0 0 3 1v13l-2 5-2-1v-16z" fill="#0E0408"/>
<path transform="translate(910,920)" d="m0 0 9 1 9 3 3 4-10-1-4-3-5-1v-2z" fill="#FCCAB4"/>
<path transform="translate(1093,444)" d="m0 0 9 6 2 3-5 5-5 3-2-1 3-4 2-3h2v-3l-4-2z" fill="#F5A08B"/>
<path transform="translate(934,932)" d="m0 0 7 2 8 5-4 2-5 1-3-6v-2h-5z" fill="#FDCDB7"/>
<path transform="translate(814,970)" d="m0 0 5 1 12 4 2 3-12-1-4-2v-3l-3-1z" fill="#FBC1AC"/>
<path transform="translate(1e3 962)" d="m0 0 3 1-1 7-6-1-6-5 2-1z" fill="#FDCDB7"/>
<path transform="translate(1082,761)" d="m0 0 2 2 5 14v3h-5l-11-5-7-3 3-1 18 7-5-13z" fill="#E7473C"/>
<path transform="translate(613,562)" d="m0 0h1l-1 29-2-3-1-4v-9z" fill="#F28B78"/>
<path transform="translate(977,952)" d="m0 0 8 6 14 11 3 3-7-2-10-9-6-4z" fill="#1B070A"/>
<path transform="translate(1182,715)" d="m0 0 2 2 6 16 2 4-1 3v-2h-2l-5-8z" fill="#F18574"/>
<path transform="translate(701,472)" d="m0 0h2l-1 5-8 22h-1v-7l4-10 2-3z" fill="#F18674"/>
<path transform="translate(932,364)" d="m0 0h20l16 1 6 2v1l-16-1-26-2z" fill="#FFEEE2"/>
<path transform="translate(734,203)" d="m0 0 2 1-2 6-5 8h-2l-1 3h-1v-5l3-1 3-9z" fill="#FCDCCE"/>
<path transform="translate(911,1719)" d="m0 0h1l-1 10-2 7h-7l1-8 1-5 2 4v8h2l2-14z" fill="#1B070A"/>
<path transform="translate(1027,990)" d="m0 0 4 1 6 3v2l3 1v2l4 2 5 4v2l-4-2-13-10z" fill="#F39581"/>
<path transform="translate(974,203)" d="m0 0v3l-9 12-6 5-3-1 6-7 5-5z" fill="#1B070A"/>
<path transform="translate(700,396)" d="m0 0 1 4-3 10-5 12-2 5h-2l3-10z" fill="#F28B79"/>
<path transform="translate(789,123)" d="m0 0 2 1-9 16-4 4-1-3 6-9 2-4z" fill="#F7AE99"/>
<path transform="translate(1150,676)" d="m0 0 4 2 11 8 6 7 3 3-1 2-12-12-11-9z" fill="#1B070A"/>
<path transform="translate(1056,620)" d="m0 0 5 2 21 12-4 1-21-12z" fill="#F3917E"/>
<path transform="translate(1058,620)" d="m0 0 6 2 11 6 8 5 3 1v2l4 1v2l-5-2-24-14z" fill="#1B070A"/>
<path transform="translate(1023,542)" d="m0 0h4v2l4 2 5 6 3 2v3l4 1 1 4-6-4-9-10-6-5z" fill="#FACEC1"/>
<path transform="translate(1e3 172)" d="m0 0 4 1-2 4-6 7h-3l1-5z" fill="#0E0408"/>
<path transform="translate(1006,862)" d="m0 0 5 4 1 6-4 1v-2l-3-1-1-7z" fill="#FBC6B0"/>
<path transform="translate(829,717)" d="m0 0 19 1 5 2-3 1-15-1h-11l3-2z" fill="#F18A77"/>
<path transform="translate(1036,710)" d="m0 0 5 1 16 10 2 4-9-5-11-7z" fill="#F39480"/>
<path transform="translate(750,267)" d="m0 0 2 1-11 17-4 7-1-4 6-10 6-9h2z" fill="#F28F7C"/>
<path transform="translate(770,152)" d="m0 0h2l-2 4-3 3-5 9h-1l1-9 5-5z" fill="#FBCDBE"/>
<path transform="translate(1016,695)" d="m0 0 5 1 9 7 6 4-1 3-15-11z" fill="#F28E7B"/>
<path transform="translate(1159,1537)" d="m0 0 5 5-3 2h2l1 9h-3l-3-10z" fill="#0E0408"/>
<path transform="translate(1219,852)" d="m0 0h1l3 19v6h-2l-3-19z" fill="#F18573"/>
<path transform="translate(621,1555)" d="m0 0 2 2 1 9-2 2-5 1 3-11z" fill="#2C0C0E"/>
<path transform="translate(955,1135)" d="m0 0 4 2 5 6v3l-5-1-4-6z" fill="#1B070A"/>
<path transform="translate(1e3 333)" d="m0 0 17 5 1 2h-8l-8-3z" fill="#1B070A"/>
<path transform="translate(750,181)" d="m0 0 2 1-5 8-3 3-3 5-1-2-2-1 1-2h2l2-4h2l1-5h2z" fill="#F9C4B5"/>
<path transform="translate(930,929)" d="m0 0 1 4-5 7-4 1v-4l4-4h2z" fill="#4A1515"/>
<path transform="translate(1046,564)" d="m0 0 5 1 2 4 5 1 8 8h-4v-2l-5-2v-2l-5-2-1-3-5-2z" fill="#F9C5B6"/>
<path transform="translate(952,563)" d="m0 0 6 2 19 7 1 2-6-1-16-6z" fill="#1B070A"/>
<path transform="translate(954,223)" d="m0 0 3 1-5 5-10 9-4 4-2-1 15-15h2z" fill="#1B070A"/>
<path transform="translate(846,164)" d="m0 0h1l-1 8-4 11-2-3 2-8 3-7z" fill="#F59E89"/>
<path transform="translate(1193,719)" d="m0 0 3 1 9 21h-3l-7-16z" fill="#FAC0A8"/>
<path transform="translate(1046,575)" d="m0 0 8 6 11 9-3 1-7-6v-2l-4-1-5-4z" fill="#F28E7B"/>
<path transform="translate(663,388)" d="m0 0h1v10l-3 14-2 1 1-10z" fill="#EF7D6C"/>
<path transform="translate(705,355)" d="m0 0h2l-2 9-3 10-2-4 1-5z" fill="#F18875"/>
<path transform="translate(1220,800)" d="m0 0 3 1 1 7 1 1 1 11h-2l-4-16z" fill="#F18C7C"/>
<path transform="translate(1166,678)" d="m0 0 4 1 7 8 4 2 2 7-17-17z" fill="#ED6E61"/>
<path transform="translate(945,949)" d="m0 0h4v4l-8 5-3-1 5-5z" fill="#3E1212"/>
<path transform="translate(1020,754)" d="m0 0 11 1 11 4v2l-9-2-13-4z" fill="#EF7A69"/>
<path transform="translate(1024,455)" d="m0 0 11 3 9 3v1h-9l-8-3v-2l-3-1z" fill="#F7B3A3"/>
<path transform="translate(950,1094)" d="m0 0 3 3 1 8-4 1-1-3v-7z" fill="#FBC5AF"/>
<path transform="translate(879,994)" d="m0 0 8 2 6 2 4 2-1 4-17-9z" fill="#FDCDB7"/>
<path transform="translate(700,498)" d="m0 0 2 1-8 10-3 1-1-1 1-10h2v7l5-5z" fill="#F18774"/>
<path transform="translate(720,416)" d="m0 0 1 3-7 22h-1l1-8 4-14z" fill="#F18774"/>
<path transform="translate(1016,991)" d="m0 0 7 4 8 7 3 3-4-1-13-10z" fill="#F39683"/>
<path transform="translate(981,964)" d="m0 0 6 4 7 6 6 4-3 1-12-9-4-4z" fill="#F39683"/>
<path transform="translate(646,476)" d="m0 0 2 3-1 7-4 2-1-5z" fill="#FFEEE2"/>
<path transform="translate(673,1327)" d="m0 0 1 4-4 15-1 4-3 3 4-17z" fill="#581A19"/>
<path transform="translate(1212,821)" d="m0 0h3l2 11v6h-2z" fill="#F18A77"/>
<path transform="translate(749,349)" d="m0 0h1v7l-1 4h-2v8l-4 3 3-12z" fill="#F49784"/>
<path transform="translate(738,303)" d="m0 0 1 3-8 17-3 1 2-6z" fill="#F08472"/>
<path transform="translate(1028,79)" d="m0 0 8 1 1 5h-3l-1-2h-10l3-1v-2z" fill="#FDD8C6"/>
<path transform="translate(916,929)" d="m0 0h3l-2 6h-2l-1 4h-3l1-5z" fill="#C77769"/>
<path transform="translate(844,896)" d="m0 0 8 1v2l-26-1v-1z" fill="#ED6E5E"/>
<path transform="translate(715,837)" d="m0 0 4 1 1 6-3 1-1 3-1-1z" fill="#0E0408"/>
<path transform="translate(1090,639)" d="m0 0 5 1 12 7 5 3-2 1-17-9z" fill="#1B070A"/>
<path transform="translate(677,316)" d="m0 0h1v9l-3 9-2 1 1-9z" fill="#F28B79"/>
<path transform="translate(768,260)" d="m0 0 2 1-6 6v7l-3 2-4-1 3-1 2-8z" fill="#EB6556"/>
<path transform="translate(951,1137)" d="m0 0 3 1v2h2l1 4-3 2-4-1z" fill="#FCCCB6"/>
<path transform="translate(1e3 733)" d="m0 0h1l-1 12-1 3-7-2-1-2 6 1 1-4z" fill="#EE7262"/>
<path transform="translate(803,278)" d="m0 0 8 1 1 3-7 2-3-5z" fill="#FEEADD"/>
<path transform="translate(1009,162)" d="m0 0 1 3-10 11-2-2 7-8z" fill="#F7AC98"/>
<path transform="translate(630,1523)" d="m0 0h1l1 13h-2v2l-3-1 2-11z" fill="#1B070A"/>
<path transform="translate(831,895)" d="m0 0 13 1v1l-18 1-7 1 4-3z" fill="#F7AC95"/>
<path transform="translate(1111,841)" d="m0 0h2l4 11v2h2l2 4-1 3v-2l-3-1-6-15z" fill="#F5A28D"/>
<path transform="translate(1121,658)" d="m0 0 5 1 10 7-3 1-7-3v-2l-5-2z" fill="#F28D7A"/>
<path transform="translate(1082,606)" d="m0 0 4 2 10 10-1 2-12-11z" fill="#F08371"/>
<path transform="translate(631,523)" d="m0 0h1v6l2 1-3 3-4-1 1-6h2z" fill="#F3927F"/>
<path transform="translate(635,514)" d="m0 0 1 2-3 10-2-2-2 2 2-10z" fill="#EE7666"/>
<path transform="translate(658,413)" d="m0 0 2 4-2 10-2 9h-2l2-12z" fill="#F18674"/>
<path transform="translate(801,116)" d="m0 0 5 2h2v2l-5 3h-4l1-5z" fill="#F59F8A"/>
<path transform="translate(634,1512)" d="m0 0h1v10h-2l-1 2-2-1 2-8z" fill="#310E0F"/>
<path transform="translate(1251,922)" d="m0 0 2 3 4 11v3h-2l-5-14z" fill="#F18472"/>
<path transform="translate(949,455)" d="m0 0h17v1h-7v2h-10z" fill="#FABFA8"/>
<path transform="translate(729,918)" d="m0 0 2 1v7l-4 4-3 4 1-7 3-3z" fill="#FDDFD0"/>
<path transform="translate(757,912)" d="m0 0h17v1l-23 3 1-2z" fill="#F28D7A"/>
<path transform="translate(1073,734)" d="m0 0 6 1 8 4 1 3-6-2-9-5z" fill="#F18977"/>
<path transform="translate(1075,620)" d="m0 0 6 1 8 5 1 3-5-2-10-6z" fill="#F08170"/>
<path transform="translate(1010,528)" d="m0 0 4 2 3 6 4 1 2 1-1 4-7-5-2-6h-2z" fill="#F6B1A2"/>
<path transform="translate(851,419)" d="m0 0h5l-6 8-5 4 2-5z" fill="#1A0609"/>
<path transform="translate(725,308)" d="m0 0h2l-3 9-4 9h-1l1-8 4-8z" fill="#F18977"/>
<path transform="translate(858,102)" d="m0 0h2v14l-1 6h-1l-1-13z" fill="#FCCBB5"/>
<path transform="translate(606,1616)" d="m0 0h1v7l-2 6-3-1 2-10z" fill="#3F1212"/>
<path transform="translate(638,637)" d="m0 0 3 1 7 12-1 4-8-14z" fill="#F28B79"/>
<path transform="translate(1082,635)" d="m0 0 5 2 8 5 1 3-6-2-8-6z" fill="#F3927F"/>
<path transform="translate(1e3 726)" d="m0 0h1v7l-2 8-2-1 2-13z" fill="#FABCA4"/>
<path transform="translate(1083,620)" d="m0 0 4 2 3 2v3l5 2 1 2-6-2-1-3-4-2-3-3z" fill="#FDDBCA"/>
<path transform="translate(673,436)" d="m0 0h2l-2 6-4 8-2-3z" fill="#F18A77"/>
<path transform="translate(733,368)" d="m0 0h2l-2 9-2 6-2-4 3-10z" fill="#F18674"/>
<path transform="translate(851,300)" d="m0 0 4 4 1 8-4-4-2-7z" fill="#1B070A"/>
<path transform="translate(804,274)" d="m0 0 10 2v3h-6l-5-2z" fill="#270A0D"/>
<path transform="translate(579,1728)" d="m0 0 1 3-2 5-2 1h-7l-2-2 1-3 4 2-1 1 6-1z" fill="#340F10"/>
<path transform="translate(574,1715)" d="m0 0h1l-1 11-4 1 2-8z" fill="#340E10"/>
<path transform="translate(725,947)" d="m0 0 7 4 4 7-5-2-1-4-4-1z" fill="#F49D8C"/>
<path transform="translate(957,945)" d="m0 0 6 4 8 6-3 1-9-7z" fill="#F2907D"/>
<path transform="translate(1061,396)" d="m0 0 7 1 6 4v2l-6-2-7-4z" fill="#F7B4A5"/>
<path transform="translate(672,335)" d="m0 0h1v16h-3l1-11z" fill="#F28C7A"/>
<path transform="translate(926,331)" d="m0 0 11 1-2 2h-13l1-2z" fill="#0E0408"/>
<path transform="translate(1033,284)" d="m0 0h7l3 4-1 2-5-2-4-2z" fill="#FBD1C3"/>
<path transform="translate(1010,176)" d="m0 0v3l-4 6-4 3-2-1 9-10z" fill="#F4A294"/>
<path transform="translate(999,967)" d="m0 0 5 2h5l-2 5-10-5z" fill="#F28E7B"/>
<path transform="translate(1059,725)" d="m0 0 5 1 9 6v2l-5-2-9-6z" fill="#F28E7B"/>
<path transform="translate(914,493)" d="m0 0 4 1v6l-2-3-9 2 5-5z" fill="#F49684"/>
<path transform="translate(941,458)" d="m0 0 5 1-2 5-3 3v-3l-3-2z" fill="#1B070A"/>
<path transform="translate(999,188)" d="m0 0 1 4-8 7-2-1z" fill="#F8B9A9"/>
<path transform="translate(746,968)" d="m0 0 4 2-3 1v11l-1 6h-1v-10z" fill="#F18573"/>
<path transform="translate(1238,919)" d="m0 0h1v6h2l1 7-3 4-1-7z" fill="#EF7969"/>
<path transform="translate(910,920)" d="m0 0 9 1 8 2v1h-10l-5-1v-2z" fill="#F28D7C"/>
<path transform="translate(993,754)" d="m0 0 5 1 8 3-2 2-7-1z" fill="#F18573"/>
<path transform="translate(921,720)" d="m0 0 8 1v2l-21-1v-1z" fill="#ED6E5E"/>
<path transform="translate(1105,616)" d="m0 0 4 1v2h2v2h2l1 6-5-5z" fill="#F18C7C"/>
<path transform="translate(759,313)" d="m0 0 2 4-1 4h-2l-1 8h-2l2-10z" fill="#F28C7A"/>
<path transform="translate(904,181)" d="m0 0h2l-2 9h-4l2-6z" fill="#1B070A"/>
<path transform="translate(850,142)" d="m0 0 2 1-3 10-4-2 2-5z" fill="#FCCCB6"/>
<path transform="translate(941,1065)" d="m0 0 5 1 6 6-1 3-10-9z" fill="#F28F7C"/>
<path transform="translate(1014,977)" d="m0 0 2 1-1 2 5 2 3 3-1 2-6-4-3-3z" fill="#F39380"/>
<path transform="translate(809,904)" d="m0 0h16v1l-22 3 4-3z" fill="#1B070A"/>
<path transform="translate(847,376)" d="m0 0h1v14h-2l-1 2 1-11z" fill="#1B070A"/>
<path transform="translate(729,324)" d="m0 0 1 2-2 6-2 1-1 3h-2l3-9z" fill="#F49783"/>
<path transform="translate(846,156)" d="m0 0 1 4-5 14-1-3 4-14z" fill="#FDCDB7"/>
<path transform="translate(1e3 979)" d="m0 0 4 2 9 7-3 1-6-4z" fill="#F08170"/>
<path transform="translate(827,443)" d="m0 0h3l3 1-7 6h-2l2-5z" fill="#1B070A"/>
<path transform="translate(951,327)" d="m0 0 5 2 1 4-8-2v-3z" fill="#0E0408"/>
<path transform="translate(928,139)" d="m0 0 3 1-3 3-9 4 2-4z" fill="#FCD6C7"/>
<path transform="translate(979,105)" d="m0 0 3 1-14 10-2-1 10-8z" fill="#FBC3AC"/>
<path transform="translate(878,996)" d="m0 0 7 1 8 5-1 2-14-7z" fill="#F39581"/>
<path transform="translate(1256,939)" d="m0 0h2l2 11h-2l-2-4z" fill="#F2907D"/>
<path transform="translate(965,742)" d="m0 0 9 3 2 2-4 1-6-3z" fill="#F39581"/>
<path transform="translate(1043,612)" d="m0 0 5 2 8 5-4 1-9-6z" fill="#F18875"/>
<path transform="translate(664,456)" d="m0 0 1 3-5 10h-1v-6z" fill="#F07F6E"/>
<path transform="translate(1065,358)" d="m0 0h2l-1 3-6 3-6-1 3-2z" fill="#F6B0A2"/>
<path transform="translate(778,275)" d="m0 0h2l-2 4-7 7v-3z" fill="#F8B5A4"/>
<path transform="translate(877,172)" d="m0 0 2 1-5 5-5 1v-2z" fill="#481515"/>
<path transform="translate(1258,1055)" d="m0 0h1v8l-2 4-1-2 1-9z" fill="#F49884"/>
<path transform="translate(1216,786)" d="m0 0h3l1 14-2-3-2-7z" fill="#EF7B6C"/>
<path transform="translate(1183,696)" d="m0 0 4 2 3 11-1 4-4-12z" fill="#EA594C"/>
<path transform="translate(1109,634)" d="m0 0 5 4 1 4-5-1-2-2 2-1z" fill="#EF7868"/>
<path transform="translate(856,338)" d="m0 0h1l-1 7-1 2h-2v-8z" fill="#FABFA9"/>
<path transform="translate(729,212)" d="m0 0 3 1-3 5h-2l-1 3h-1v-5l3-1z" fill="#FAC6B7"/>
<path transform="translate(759,167)" d="m0 0 1 3-4 7-2-3 2-4z" fill="#FAC8B9"/>
<path transform="translate(789,123)" d="m0 0 2 1-5 9-1-2-2-1z" fill="#F6A895"/>
</svg>
